{"glyphs":{"0":{"ha":729,"x_min":69,"x_max":661,"o":"m 564 231 q 576 486 576 353 q 564 742 576 619 q 528 831 558 796 q 455 883 497 865 q 365 900 413 900 q 274 882 317 900 q 202 828 232 864 q 167 742 172 793 q 153 486 153 619 q 167 231 153 353 q 203 142 172 178 q 275 90 233 107 q 365 72 317 72 q 456 90 414 72 q 528 144 497 108 q 564 231 558 179 m 647 751 q 661 486 661 625 q 647 221 661 347 q 585 83 638 142 q 456 0 533 24 q 365 -14 411 -14 q 275 0 318 -14 q 144 83 197 24 q 83 221 92 142 q 69 486 69 347 q 83 751 69 625 q 142 888 92 829 q 268 971 193 946 q 365 986 314 986 q 461 971 415 986 q 587 888 536 946 q 647 751 638 829 z "},"1":{"ha":524,"x_min":35,"x_max":419,"o":"m 419 929 l 419 0 l 333 0 l 333 875 l 301 875 l 96 668 l 35 729 l 260 954 q 306 972 281 972 l 376 972 q 407 960 394 972 q 419 929 419 947 z "},"2":{"ha":821,"x_min":104,"x_max":717,"o":"m 717 0 l 144 0 q 116 12 128 0 q 104 40 104 24 l 104 164 q 149 294 104 236 q 264 383 193 353 l 482 476 l 482 476 q 553 514 524 490 q 600 566 582 538 q 626 626 618 594 q 635 683 635 657 q 626 742 635 711 q 600 801 618 772 q 553 853 582 829 q 482 890 524 876 q 401 904 446 903 q 308 901 356 906 q 216 887 261 896 q 136 867 171 878 l 113 944 q 205 967 154 957 q 308 983 256 978 q 413 985 361 988 q 508 968 465 982 q 594 924 556 953 q 660 858 633 896 q 702 776 688 821 q 717 683 717 732 q 702 592 717 636 q 660 510 688 547 q 594 443 633 472 q 508 399 556 414 l 292 306 q 216 249 246 286 q 186 164 186 211 l 186 82 l 717 82 l 717 0 z "},"3":{"ha":761,"x_min":76,"x_max":692,"o":"m 86 28 l 111 106 q 240 76 175 86 q 374 68 306 67 q 447 78 413 68 q 523 115 492 90 q 574 168 554 139 q 601 229 593 197 q 610 288 610 261 q 601 347 610 315 q 574 407 593 378 q 523 460 554 436 q 447 497 492 485 q 335 508 396 513 q 224 496 274 504 q 197 500 208 493 q 179 519 185 507 q 176 544 174 531 q 190 568 178 558 l 558 858 l 558 890 l 76 890 l 76 972 l 600 972 q 628 960 617 972 q 640 932 640 949 l 640 838 q 625 806 640 818 l 350 589 q 410 588 381 590 q 468 576 439 585 q 560 535 519 563 q 631 469 601 507 q 676 384 660 431 q 692 288 692 338 q 676 192 692 238 q 631 108 660 146 q 560 41 601 69 q 468 -1 519 13 q 374 -14 422 -14 q 228 -3 301 -14 q 86 28 156 7 z "},"4":{"ha":782,"x_min":61,"x_max":733,"o":"m 563 363 l 563 871 l 519 871 l 190 363 l 563 363 m 647 363 l 733 363 l 733 278 l 647 278 l 647 0 l 563 0 l 563 278 l 114 278 q 74 299 88 278 q 76 343 61 319 l 456 929 q 490 960 468 949 q 535 972 511 972 l 604 972 q 614 971 611 972 q 638 956 629 968 q 647 929 647 944 l 647 363 z "},"5":{"ha":690,"x_min":67,"x_max":621,"o":"m 400 590 q 474 576 439 590 q 538 536 510 561 q 585 478 565 511 q 610 406 604 444 q 621 285 621 340 q 610 164 621 229 q 564 63 600 107 q 475 0 528 19 q 400 -14 442 -14 l 336 -14 q 203 -2 269 -14 q 75 32 138 10 l 104 111 q 336 71 217 71 l 400 71 q 446 79 424 71 q 499 117 478 90 q 526 178 521 144 q 537 285 536 236 q 526 392 538 333 q 484 472 519 439 q 400 506 449 506 l 321 506 q 124 476 219 506 q 111 475 119 475 q 79 488 92 475 q 69 521 67 501 l 117 935 q 130 961 118 950 q 158 972 142 972 l 569 972 l 569 888 l 196 888 l 160 572 q 321 590 236 590 l 400 590 z "},"6":{"ha":789,"x_min":69,"x_max":721,"o":"m 635 264 q 636 294 636 283 q 635 325 636 306 q 597 436 632 392 q 510 502 561 481 q 401 524 460 524 q 291 501 342 524 q 205 435 240 479 q 167 325 169 390 q 165 294 165 306 q 167 264 165 283 q 206 156 171 199 q 292 91 242 113 q 401 69 343 69 q 510 91 460 69 q 597 156 561 113 q 635 264 632 199 m 153 504 q 251 577 194 551 q 369 608 307 603 q 492 597 431 613 q 602 546 553 581 q 683 457 651 511 q 719 331 715 403 q 721 294 721 307 q 719 260 721 282 q 667 107 714 168 q 551 15 619 46 q 404 -15 483 -15 q 256 15 325 -15 q 139 104 188 44 q 83 254 90 164 q 73 376 76 319 q 69 486 69 432 q 73 597 69 540 q 83 719 76 653 q 106 804 88 764 q 151 877 124 844 q 213 934 178 910 q 285 971 247 958 q 370 985 322 983 q 469 983 418 988 q 568 967 519 978 q 657 940 617 956 l 628 861 q 368 901 501 907 q 294 885 329 900 q 232 844 258 869 q 188 785 206 819 q 167 711 171 751 q 157 601 160 653 q 153 504 154 549 z "},"7":{"ha":713,"x_min":69,"x_max":643,"o":"m 600 972 q 631 960 618 972 q 643 929 643 947 l 643 871 q 639 853 643 861 l 253 0 l 160 0 l 557 879 l 557 886 l 69 886 l 69 972 l 600 972 z "},"8":{"ha":778,"x_min":68,"x_max":710,"o":"m 624 238 q 625 274 625 254 q 624 311 625 294 q 585 408 621 369 q 499 466 550 447 q 389 485 447 485 q 279 465 331 485 q 193 407 228 446 q 154 311 158 368 q 153 274 153 294 q 154 238 153 254 q 193 144 158 182 q 279 89 228 107 q 389 71 331 71 q 499 90 447 71 q 585 145 550 108 q 624 238 621 182 m 201 708 q 232 631 204 663 q 301 585 260 600 q 389 569 342 569 q 477 585 436 569 q 546 631 518 600 q 576 708 574 663 q 576 768 579 738 q 545 842 574 813 q 476 885 517 871 q 389 900 436 900 q 301 885 342 900 q 232 841 260 871 q 201 768 204 811 q 201 708 199 738 m 568 533 q 665 443 628 501 q 707 317 703 385 q 707 233 710 274 q 653 96 701 151 q 537 13 606 40 q 388 -14 468 -14 q 240 14 308 -14 q 123 97 171 42 q 71 233 75 151 q 71 317 68 274 q 112 443 75 385 q 208 533 149 501 q 144 607 168 561 q 117 703 119 653 q 117 772 114 739 q 162 890 121 843 q 262 961 203 938 q 389 984 321 985 q 516 960 457 983 q 615 889 575 936 q 660 772 656 842 q 660 703 663 739 q 633 607 657 653 q 568 533 608 561 z "},"9":{"ha":789,"x_min":69,"x_max":721,"o":"m 71 714 q 103 835 75 783 q 174 920 131 886 q 274 972 218 954 q 386 989 329 989 q 499 972 443 989 q 598 922 554 956 q 671 837 642 888 q 706 719 700 786 q 717 598 713 654 q 721 488 721 542 q 717 377 721 433 q 706 254 713 321 q 683 169 701 210 q 639 97 665 129 q 578 40 613 64 q 506 3 543 15 q 451 -9 481 -6 q 390 -12 422 -12 q 255 1 324 -12 q 133 33 186 14 l 161 113 q 421 72 290 67 q 496 89 461 74 q 557 129 531 104 q 601 189 583 154 q 622 263 618 224 q 632 373 629 321 q 636 469 635 425 q 526 391 590 417 q 392 365 461 365 q 277 383 333 365 q 176 436 221 401 q 103 523 132 471 q 71 643 75 575 q 69 679 69 667 q 71 714 69 692 m 154 649 q 178 561 157 599 q 231 499 199 524 q 305 463 264 475 q 388 450 346 450 q 472 463 431 450 q 545 500 513 475 q 599 562 578 525 q 622 649 619 599 q 624 679 624 668 q 622 710 624 690 q 599 795 619 758 q 545 856 578 832 q 472 892 513 881 q 388 904 431 904 q 305 892 346 904 q 231 856 264 881 q 178 795 199 832 q 154 710 157 758 q 153 679 153 690 q 154 649 153 668 z "},"Þ":{"ha":800,"x_min":139,"x_max":661,"o":"m 139 972 l 661 972 l 661 0 l 139 0 l 139 972 m 632 28 l 632 944 l 167 944 l 167 28 l 632 28 z "},"\u0000":{"ha":0,"x_min":0,"x_max":0,"o":""},"\r":{"ha":347,"x_min":0,"x_max":0,"o":""}," ":{"ha":347,"x_min":0,"x_max":0,"o":""},"-":{"ha":524,"x_min":104,"x_max":419,"o":"m 104 524 l 419 524 l 419 440 l 104 440 l 104 524 z "},"+":{"ha":690,"x_min":104,"x_max":586,"o":"m 303 446 l 104 446 l 104 529 l 303 529 l 303 728 l 386 728 l 386 529 l 586 529 l 586 446 l 386 446 l 386 246 l 303 246 l 303 446 z "},"*":{"ha":514,"x_min":7,"x_max":410,"o":"m 250 972 l 250 825 l 369 890 l 410 818 l 294 754 l 410 690 l 369 617 l 250 683 l 250 535 l 167 535 l 167 683 l 47 617 l 7 690 l 122 754 l 7 818 l 47 890 l 167 825 l 167 972 l 250 972 z "},"^":{"ha":485,"x_min":7,"x_max":381,"o":"m 103 946 q 144 972 114 972 l 243 972 q 286 946 274 972 l 381 750 l 301 719 l 218 893 l 169 893 l 86 719 l 7 750 l 103 946 z "},"˜":{"ha":738,"x_min":104,"x_max":633,"o":"m 465 474 q 515 495 492 474 q 554 556 539 517 l 633 525 q 563 426 607 463 q 465 390 518 390 q 397 407 424 390 q 351 444 371 424 q 313 482 331 465 q 272 499 296 499 q 222 477 246 499 q 183 417 199 456 l 104 447 q 175 546 131 510 q 272 582 219 582 q 339 565 313 582 q 385 528 365 549 q 424 490 406 507 q 465 474 442 474 z "},"/":{"ha":585,"x_min":100,"x_max":532,"o":"m 532 972 l 189 0 l 100 0 l 442 972 l 532 972 z "},"\\":{"ha":669,"x_min":63,"x_max":607,"o":"m 154 972 l 607 0 l 514 0 l 63 972 l 154 972 z "},":":{"ha":343,"x_min":104,"x_max":239,"o":"m 239 300 q 219 253 239 272 q 172 233 200 233 q 124 253 144 233 q 104 300 104 272 q 124 348 104 328 q 172 368 144 368 q 219 348 200 368 q 239 300 239 328 m 239 671 q 219 624 239 643 q 172 604 200 604 q 124 624 144 604 q 104 671 104 643 q 124 719 104 699 q 172 739 144 739 q 219 719 200 739 q 239 671 239 699 z "},";":{"ha":388,"x_min":104,"x_max":283,"o":"m 263 701 q 243 654 263 674 q 196 635 224 635 q 148 654 168 635 q 128 701 128 674 q 148 749 128 729 q 196 769 168 769 q 243 749 224 769 q 263 701 263 729 m 161 114 l 106 175 q 175 272 150 217 q 200 389 200 326 l 200 422 l 104 422 l 104 506 l 283 506 l 283 389 q 251 238 283 310 q 161 114 219 167 z "},"<":{"ha":667,"x_min":104,"x_max":563,"o":"m 563 635 l 189 501 l 189 471 l 563 338 l 535 258 l 124 404 q 104 433 104 411 l 104 539 q 124 568 104 561 l 535 714 l 563 635 z "},">":{"ha":667,"x_min":104,"x_max":563,"o":"m 132 714 l 543 568 q 563 539 563 561 l 563 433 q 543 404 563 411 l 132 258 l 104 338 l 479 471 l 479 501 l 104 635 l 132 714 z "},"!":{"ha":343,"x_min":104,"x_max":239,"o":"m 129 972 l 214 972 l 214 218 l 129 218 l 129 972 m 239 68 q 219 115 239 96 q 172 135 200 135 q 124 115 144 135 q 104 68 104 96 q 124 20 104 40 q 172 0 144 0 q 219 20 200 0 q 239 68 239 40 z "},"?":{"ha":790,"x_min":104,"x_max":686,"o":"m 432 983 q 526 963 482 981 q 603 917 569 946 q 658 847 636 888 q 683 756 679 806 q 685 726 685 739 q 686 701 686 713 q 685 676 686 689 q 683 644 685 663 q 658 551 679 594 q 602 475 636 508 q 524 422 568 442 q 431 399 481 401 q 395 382 410 397 q 381 347 381 367 l 381 214 l 297 214 l 297 347 q 307 397 297 374 q 334 440 317 421 q 375 469 351 458 q 426 482 399 481 q 491 498 461 485 q 544 534 521 511 q 583 587 568 557 q 600 651 597 617 q 603 701 603 683 q 600 749 603 718 q 544 857 593 818 q 426 900 496 896 q 121 878 267 908 l 104 960 q 432 983 265 993 m 404 65 q 385 19 404 38 q 339 0 367 0 q 292 19 311 0 q 274 65 274 38 q 292 112 274 93 q 339 131 311 131 q 385 112 367 131 q 404 65 404 93 z "},"'":{"ha":153,"x_min":35,"x_max":118,"o":"m 118 1188 l 118 889 l 35 889 l 35 1188 l 118 1188 z "},"\"":{"ha":297,"x_min":35,"x_max":263,"o":"m 263 1188 l 263 889 l 179 889 l 179 1188 l 263 1188 m 118 1188 l 118 889 l 35 889 l 35 1188 l 118 1188 z "},"#":{"ha":793,"x_min":35,"x_max":758,"o":"m 632 968 l 618 697 l 758 697 l 758 613 l 614 613 l 600 360 l 740 360 l 740 275 l 596 275 l 582 0 l 497 4 l 513 275 l 258 275 l 244 0 l 160 4 l 175 275 l 35 275 l 35 360 l 179 360 l 192 613 l 53 613 l 53 697 l 197 697 l 211 972 l 294 968 l 281 697 l 533 697 l 549 972 l 632 968 m 263 360 l 517 360 l 529 613 l 276 613 l 263 360 z "},"@":{"ha":978,"x_min":100,"x_max":879,"o":"m 543 344 q 603 369 578 346 q 633 426 628 393 l 633 439 l 633 446 q 607 511 633 485 q 543 540 581 538 q 442 540 493 544 q 378 511 404 538 q 351 446 351 485 l 351 439 q 378 374 351 400 q 442 344 404 347 q 543 344 493 340 m 514 903 q 651 868 588 899 q 762 789 714 838 q 839 676 810 740 q 872 539 868 613 q 828 339 879 432 q 782 290 811 307 q 717 272 753 272 q 646 304 675 271 q 643 308 644 307 q 640 313 642 310 q 597 288 621 297 q 547 276 574 278 q 439 276 493 272 q 378 291 407 278 q 329 326 350 304 q 296 377 308 349 q 283 438 283 406 l 283 447 q 296 508 283 479 q 329 558 308 536 q 378 594 350 581 q 439 608 407 607 q 547 608 492 613 q 635 578 596 606 q 590 663 628 628 q 501 699 553 697 q 427 694 464 699 q 354 681 390 690 l 336 746 q 501 767 418 767 q 576 751 540 767 q 638 711 611 736 q 683 652 665 686 q 703 578 700 618 q 705 504 706 542 q 701 429 704 467 q 700 418 701 422 q 697 392 699 404 q 693 367 696 379 q 694 355 692 360 q 699 347 696 350 q 704 342 700 344 q 715 340 708 339 q 747 348 732 340 q 768 371 761 356 q 804 536 808 447 q 777 647 801 594 q 713 740 753 700 q 621 806 674 781 q 510 835 568 831 q 374 814 438 839 q 265 742 311 789 q 193 633 218 696 q 172 499 168 569 q 220 351 178 415 q 326 248 263 286 q 467 203 390 210 q 618 231 544 197 l 646 168 q 456 136 554 128 q 323 172 385 142 q 214 251 261 203 q 138 361 167 299 q 106 494 110 424 q 131 658 100 581 q 217 791 161 735 q 350 878 274 847 q 514 903 426 908 z "},"%":{"ha":1033,"x_min":104,"x_max":929,"o":"m 246 804 q 204 786 222 804 q 186 743 186 768 q 204 701 186 719 q 246 683 222 683 q 289 701 271 683 q 307 743 307 719 q 289 786 307 768 q 246 804 271 804 m 246 601 q 191 613 217 601 q 146 643 165 624 q 115 688 126 663 q 104 743 104 714 q 115 799 104 772 q 146 844 126 825 q 191 875 165 864 q 246 886 217 886 q 301 875 275 886 q 347 844 328 864 q 378 799 367 825 q 389 743 389 772 q 378 688 389 714 q 347 643 367 663 q 301 613 328 624 q 246 601 275 601 m 847 229 q 830 271 847 253 q 788 289 813 289 q 745 271 763 289 q 728 229 728 253 q 745 186 728 204 q 788 168 763 168 q 830 186 813 168 q 847 229 847 204 m 644 229 q 656 284 644 258 q 686 329 667 310 q 732 360 706 349 q 788 371 758 371 q 842 360 817 371 q 888 329 868 349 q 918 284 907 310 q 929 229 929 258 q 918 174 929 200 q 888 128 907 147 q 842 97 868 108 q 788 86 817 86 q 732 97 758 86 q 686 128 706 108 q 656 174 667 147 q 644 229 644 200 m 771 938 l 338 0 l 263 35 l 696 972 l 771 938 z "},"&":{"ha":817,"x_min":104,"x_max":713,"o":"m 192 344 q 189 281 189 317 q 192 217 189 244 q 247 117 199 158 q 364 72 296 76 q 434 72 403 69 q 493 79 465 74 q 520 93 510 82 q 531 118 531 104 l 531 490 l 357 489 q 245 444 292 485 q 192 344 199 403 m 360 -12 q 266 8 310 -10 q 188 56 222 26 q 133 124 154 85 q 107 208 111 164 q 104 281 104 240 q 107 353 104 321 q 145 458 114 411 q 225 535 176 504 q 145 617 175 567 q 115 728 115 668 l 115 746 q 135 837 115 794 q 188 911 154 879 q 269 963 222 943 q 368 985 315 983 q 440 985 408 986 q 503 983 472 985 q 563 976 533 981 q 628 967 593 972 l 649 964 l 636 879 l 615 883 q 553 892 582 888 q 497 898 525 896 q 438 901 468 900 q 372 900 408 901 q 305 886 336 899 q 250 853 274 874 q 213 804 226 832 q 200 746 200 776 l 200 728 q 213 672 200 699 q 247 626 225 646 q 297 592 268 606 q 360 575 326 579 l 360 575 l 531 575 l 531 669 l 615 669 l 615 575 l 710 575 l 710 490 l 615 490 l 615 144 q 622 116 618 131 q 636 90 626 101 q 688 71 653 71 l 713 71 l 713 -14 l 688 -14 q 618 0 644 -14 q 576 31 592 14 q 510 -4 549 4 q 435 -13 472 -11 q 360 -12 397 -15 z "},"|":{"ha":431,"x_min":174,"x_max":257,"o":"m 174 1164 l 257 1164 l 257 -192 l 174 -192 l 174 1164 z "},"[":{"ha":406,"x_min":104,"x_max":301,"o":"m 301 972 l 301 889 l 188 889 l 188 83 l 301 83 l 301 0 l 104 0 l 104 972 l 301 972 z "},"]":{"ha":406,"x_min":104,"x_max":301,"o":"m 301 972 l 301 0 l 104 0 l 104 83 l 218 83 l 218 889 l 104 889 l 104 972 l 301 972 z "},"‘":{"ha":222,"x_min":104,"x_max":188,"o":"m 188 1188 l 188 889 l 104 889 l 104 1188 l 188 1188 z "},"’":{"ha":222,"x_min":35,"x_max":118,"o":"m 118 1188 l 118 889 l 35 889 l 35 1188 l 118 1188 z "},"•":{"ha":492,"x_min":104,"x_max":388,"o":"m 388 468 q 376 413 388 439 q 346 368 365 388 q 301 338 326 349 q 246 326 275 326 q 191 338 217 326 q 146 368 165 349 q 115 413 126 388 q 104 468 104 439 q 115 523 104 497 q 146 568 126 549 q 191 599 165 588 q 246 610 217 610 q 301 599 275 610 q 346 568 326 588 q 376 523 365 549 q 388 468 388 497 z "},"_":{"ha":667,"x_min":104,"x_max":563,"o":"m 104 83 l 563 83 l 563 0 l 104 0 l 104 83 z "},"—":{"ha":764,"x_min":104,"x_max":660,"o":"m 104 350 l 660 350 l 660 267 l 104 267 l 104 350 z "},"−":{"ha":639,"x_min":104,"x_max":535,"o":"m 104 525 l 535 525 l 535 442 l 104 442 l 104 525 z "},"±":{"ha":678,"x_min":104,"x_max":574,"o":"m 114 265 l 572 265 l 572 182 l 114 182 l 114 265 m 381 808 l 381 615 l 574 615 l 574 532 l 381 532 l 381 339 l 297 339 l 297 532 l 104 532 l 104 615 l 297 615 l 297 808 l 381 808 z "},"÷":{"ha":706,"x_min":104,"x_max":601,"o":"m 104 528 l 601 528 l 601 443 l 104 443 l 104 528 m 407 303 q 392 263 407 279 q 353 247 376 247 q 313 263 329 247 q 297 303 297 279 q 313 341 297 325 q 353 357 329 357 q 392 341 376 357 q 407 303 407 325 m 407 669 q 392 631 407 647 q 353 615 376 615 q 313 631 329 615 q 297 669 297 647 q 313 709 297 693 q 353 725 329 725 q 392 709 376 725 q 407 669 407 693 z "},"·":{"ha":274,"x_min":35,"x_max":169,"o":"m 169 486 q 150 439 169 458 q 103 419 131 419 q 55 439 75 419 q 35 486 35 458 q 55 534 35 514 q 103 554 75 554 q 150 534 131 554 q 169 486 169 514 z "},"¡":{"ha":343,"x_min":104,"x_max":239,"o":"m 129 740 l 214 740 l 214 0 l 129 0 l 129 740 m 239 904 q 219 952 239 932 q 172 972 200 972 q 124 952 144 972 q 104 904 104 932 q 124 857 104 876 q 172 838 144 838 q 219 857 200 838 q 239 904 239 876 z "},"–":{"ha":663,"x_min":104,"x_max":558,"o":"m 104 350 l 558 350 l 558 267 l 104 267 l 104 350 z "},"…":{"ha":1083,"x_min":104,"x_max":979,"o":"m 239 67 q 219 19 239 39 q 171 0 199 0 q 124 19 143 0 q 104 67 104 39 q 124 115 104 94 q 171 135 143 135 q 219 115 199 135 q 239 67 239 94 m 611 68 q 591 20 611 40 q 543 0 571 0 q 496 20 515 0 q 476 68 476 40 q 496 115 476 96 q 543 135 515 135 q 591 115 571 135 q 611 68 611 96 m 979 68 q 960 20 979 40 q 913 0 940 0 q 865 20 885 0 q 844 68 844 40 q 865 115 844 96 q 913 135 885 135 q 960 115 940 135 q 979 68 979 96 z "},"⁄":{"ha":585,"x_min":100,"x_max":532,"o":"m 532 972 l 189 0 l 100 0 l 442 972 l 532 972 z "},"¯":{"ha":646,"x_min":104,"x_max":542,"o":"m 104 1125 l 542 1125 l 542 1042 l 104 1042 l 104 1125 m 104 1125 l 542 1125 l 542 1042 l 104 1042 l 104 1125 z "},"¿":{"ha":790,"x_min":104,"x_max":686,"o":"m 358 3 q 265 24 308 6 q 188 72 221 42 q 133 143 154 101 q 107 235 111 185 q 105 266 106 253 q 104 292 104 279 q 105 317 104 304 q 107 347 106 331 q 133 440 111 397 q 188 513 154 482 q 266 564 222 544 q 360 586 310 583 q 395 602 381 588 q 410 638 410 617 l 410 754 l 493 754 l 493 638 q 456 544 493 583 q 364 501 419 504 q 246 454 294 499 q 190 340 197 410 q 189 313 189 325 q 189 291 189 301 q 189 269 189 281 q 190 242 189 257 q 246 131 197 172 q 364 86 294 90 q 669 107 521 78 l 686 25 q 525 3 607 10 q 358 3 443 -3 m 386 907 q 405 953 386 935 q 451 972 424 972 q 498 953 479 972 q 517 907 517 935 q 498 860 517 879 q 451 842 479 842 q 405 860 424 842 q 386 907 386 879 z "},"¦":{"ha":292,"x_min":104,"x_max":188,"o":"m 104 -347 l 104 297 l 188 297 l 188 -347 l 104 -347 m 104 -347 l 104 297 l 188 297 l 188 -347 l 104 -347 m 104 397 l 104 1042 l 188 1042 l 188 397 l 104 397 m 104 397 l 104 1042 l 188 1042 l 188 397 l 104 397 z "},"Æ":{"ha":1028,"x_min":21,"x_max":979,"o":"m 513 886 l 318 454 l 593 454 l 593 886 l 513 886 m 281 369 l 114 0 l 21 0 l 446 947 q 485 972 457 972 l 979 972 l 979 886 l 679 886 l 679 454 l 886 454 l 886 369 l 679 369 l 679 86 l 979 86 l 979 0 l 636 0 q 606 13 618 0 q 593 43 593 25 l 593 369 l 281 369 z "},"Ð":{"ha":876,"x_min":49,"x_max":813,"o":"m 707 249 q 707 724 731 486 q 688 790 704 760 q 648 842 672 819 q 592 878 624 865 q 524 890 560 890 l 282 890 l 282 526 l 435 526 l 435 446 l 282 446 l 282 82 l 524 82 q 592 94 560 82 q 648 130 624 107 q 688 183 672 153 q 707 249 704 214 m 789 731 q 789 242 813 486 q 762 146 785 190 q 703 69 739 101 q 622 19 668 38 q 524 0 576 0 l 242 0 q 212 12 224 0 q 200 40 200 24 l 200 446 l 49 446 l 49 526 l 200 526 l 200 932 q 213 960 200 950 q 242 972 224 972 l 524 972 q 622 953 576 972 q 703 903 668 935 q 762 826 739 871 q 789 731 785 782 z "},"Đ":{"ha":876,"x_min":49,"x_max":813,"o":"m 707 249 q 707 724 731 486 q 688 790 704 760 q 648 842 672 819 q 592 878 624 865 q 524 890 560 890 l 282 890 l 282 526 l 435 526 l 435 446 l 282 446 l 282 82 l 524 82 q 592 94 560 82 q 648 130 624 107 q 688 183 672 153 q 707 249 704 214 m 789 731 q 789 242 813 486 q 762 146 785 190 q 703 69 739 101 q 622 19 668 38 q 524 0 576 0 l 242 0 q 212 12 224 0 q 200 40 200 24 l 200 446 l 49 446 l 49 526 l 200 526 l 200 932 q 213 960 200 950 q 242 972 224 972 l 524 972 q 622 953 576 972 q 703 903 668 935 q 762 826 739 871 q 789 731 785 782 z "},"¶":{"ha":658,"x_min":169,"x_max":485,"o":"m 310 811 q 398 809 354 814 q 485 792 442 804 l 485 161 l 456 161 l 456 769 q 428 774 443 772 q 397 779 413 776 l 397 161 l 368 161 l 368 411 q 337 410 353 410 q 310 411 321 410 q 221 449 258 414 q 178 536 183 483 q 178 686 169 611 q 221 773 183 738 q 310 811 258 808 z "},"§":{"ha":506,"x_min":104,"x_max":401,"o":"m 189 486 q 208 441 189 460 q 253 422 226 422 q 298 441 279 422 q 317 486 317 460 q 298 531 317 513 q 253 550 279 550 q 208 531 226 550 q 189 486 189 513 m 253 635 q 310 623 283 635 q 358 591 338 611 q 390 544 378 571 q 401 486 401 517 q 371 396 401 435 q 376 372 374 386 q 367 290 388 329 q 306 235 346 250 q 208 213 260 217 l 204 299 q 274 314 239 300 q 294 343 294 321 q 253 338 278 338 q 195 349 222 338 q 148 381 168 361 q 116 428 128 401 q 104 486 104 456 q 135 576 104 538 q 132 588 133 583 q 129 600 131 593 q 139 683 118 643 q 200 738 160 722 q 297 760 246 756 l 303 674 q 232 658 267 671 q 217 647 222 656 q 211 629 213 639 q 253 635 229 635 z "},"μ":{"ha":714,"x_min":104,"x_max":610,"o":"m 188 -347 l 104 -347 l 104 433 l 104 615 l 188 615 l 188 331 q 189 274 188 303 q 193 217 190 244 q 243 114 200 156 q 347 69 286 72 q 528 86 439 68 l 528 615 l 610 615 l 610 54 q 601 29 610 40 q 581 14 593 18 q 374 -14 478 -14 l 343 -14 q 259 6 299 -11 q 188 53 219 24 l 188 -347 z "},"‰":{"ha":1408,"x_min":104,"x_max":1304,"o":"m 263 35 l 696 972 l 771 938 l 338 0 l 263 35 m 104 743 q 115 799 104 772 q 146 844 126 825 q 192 875 165 864 q 247 886 218 886 q 302 875 276 886 q 347 844 328 864 q 378 799 367 825 q 389 743 389 772 q 378 688 389 714 q 347 643 367 663 q 302 613 328 624 q 247 601 276 601 q 192 613 218 601 q 146 643 165 624 q 115 688 126 663 q 104 743 104 714 m 1163 371 q 1217 360 1192 371 q 1263 329 1243 349 q 1293 284 1282 310 q 1304 229 1304 258 q 1293 174 1304 200 q 1263 128 1282 147 q 1217 97 1243 108 q 1163 86 1192 86 q 1107 97 1133 86 q 1061 128 1081 108 q 1031 174 1042 147 q 1019 229 1019 200 q 1031 284 1019 258 q 1061 329 1042 310 q 1107 360 1081 349 q 1163 371 1133 371 m 644 229 q 656 284 644 258 q 686 329 667 310 q 732 360 706 349 q 788 371 758 371 q 842 360 817 371 q 888 329 868 349 q 918 284 907 310 q 929 229 929 258 q 918 174 929 200 q 888 128 907 147 q 842 97 868 108 q 788 86 817 86 q 732 97 758 86 q 686 128 706 108 q 656 174 667 147 q 644 229 644 200 m 1103 229 q 1120 186 1103 204 q 1163 168 1138 168 q 1205 186 1188 168 q 1222 229 1222 204 q 1205 271 1222 253 q 1163 289 1188 289 q 1120 271 1138 289 q 1103 229 1103 253 m 186 743 q 204 701 186 719 q 247 683 222 683 q 289 701 271 683 q 307 743 307 719 q 289 786 307 768 q 247 804 271 804 q 204 786 222 804 q 186 743 186 768 m 788 168 q 830 186 813 168 q 847 229 847 204 q 830 271 847 253 q 788 289 813 289 q 745 271 763 289 q 728 229 728 253 q 745 186 728 204 q 788 168 763 168 z "},"™":{"ha":376,"x_min":-35,"x_max":450,"o":"m 138 971 l 138 929 l 72 929 l 72 615 l 31 615 l 31 929 l -35 929 l -35 971 l 138 971 m 431 972 q 450 953 450 972 l 450 615 l 408 615 l 408 914 l 336 786 q 320 778 332 778 q 304 786 308 778 l 232 914 l 232 615 l 190 615 l 190 953 q 210 972 190 972 l 238 972 q 253 963 249 972 l 319 843 l 388 963 q 403 972 393 972 l 431 972 z "},"$":{"ha":563,"x_min":49,"x_max":515,"o":"m 133 690 q 140 641 131 669 q 194 585 149 613 l 243 557 l 256 801 q 213 791 233 800 q 175 767 192 782 q 147 732 158 751 q 133 690 136 713 m 319 415 l 307 171 q 350 181 329 172 q 388 206 371 190 q 415 240 404 221 q 429 282 426 260 q 423 331 432 303 q 368 388 414 360 l 319 415 m 153 513 q 95 558 117 533 q 63 607 74 582 q 51 656 53 632 q 50 700 49 679 q 119 833 60 783 q 260 886 178 882 l 265 972 l 349 968 l 344 882 q 469 850 407 875 l 439 772 q 390 788 415 782 q 340 799 365 794 l 325 510 l 410 460 q 467 415 446 439 q 499 365 489 390 q 513 317 510 340 q 513 272 515 293 q 444 139 503 189 q 303 86 385 89 l 297 0 l 214 4 l 218 90 q 93 122 156 97 l 124 200 q 172 184 147 190 q 222 174 197 178 l 238 463 l 153 513 z "},"€":{"ha":665,"x_min":49,"x_max":617,"o":"m 138 278 q 133 314 135 296 q 129 350 132 332 l 49 350 l 49 428 l 124 428 q 124 546 122 486 l 49 546 l 49 624 l 129 624 q 133 659 132 642 q 138 696 135 676 q 161 768 142 735 q 210 826 181 801 q 279 867 240 851 q 361 885 318 882 q 617 850 496 892 l 593 776 q 365 807 485 814 q 263 769 306 804 q 214 686 221 735 q 210 654 211 669 q 207 624 208 639 l 368 624 l 368 546 l 201 546 q 201 428 200 486 l 368 428 l 368 350 l 207 350 q 210 319 208 335 q 214 288 211 303 q 263 203 221 238 q 365 167 306 169 q 481 170 424 163 q 593 196 538 178 l 617 122 q 490 94 554 103 q 361 89 426 85 q 279 107 318 92 q 210 147 240 122 q 161 206 181 172 q 138 278 142 239 z "},"¢":{"ha":617,"x_min":40,"x_max":568,"o":"m 326 182 q 544 211 438 179 l 568 132 q 473 110 521 118 q 376 101 425 103 l 376 0 l 294 0 l 294 103 q 206 129 247 108 q 132 183 164 150 q 80 258 100 215 q 56 347 60 300 q 56 625 40 486 q 80 715 60 674 q 132 790 100 757 q 206 843 164 822 q 294 869 247 864 l 294 972 l 376 972 l 376 872 q 568 840 471 868 l 544 763 q 326 790 436 792 q 257 776 290 790 q 198 740 224 763 q 156 685 172 717 q 136 617 140 654 q 136 356 124 486 q 156 287 140 318 q 198 233 172 256 q 257 196 224 210 q 326 182 290 182 z "},"£":{"ha":632,"x_min":49,"x_max":583,"o":"m 224 399 q 227 335 226 367 q 226 272 228 303 q 216 210 224 240 q 193 150 208 179 l 583 150 l 583 69 l 89 69 q 60 82 69 69 q 49 109 50 94 q 58 136 49 124 q 88 150 68 149 q 106 164 93 150 q 134 215 125 186 q 145 276 143 244 q 146 339 147 307 q 142 399 144 371 l 58 399 l 58 479 l 138 479 q 136 558 136 519 q 139 636 136 596 q 162 740 143 692 q 210 824 181 789 q 278 881 240 860 q 360 903 317 901 q 560 867 460 904 l 529 792 q 447 815 489 807 q 363 821 406 824 q 311 806 336 821 q 267 765 286 790 q 236 704 249 739 q 221 631 224 669 q 217 556 218 593 q 219 479 217 518 l 414 479 l 414 399 l 224 399 z "},"¥":{"ha":676,"x_min":49,"x_max":628,"o":"m 282 479 q 256 576 272 532 q 212 661 239 619 q 144 745 185 703 q 49 838 104 788 l 101 896 q 190 813 151 851 q 256 740 228 775 q 305 669 285 704 q 339 596 325 633 q 373 669 353 633 q 422 740 393 704 q 488 813 450 775 q 575 896 525 851 l 628 838 q 532 745 572 788 q 465 661 492 703 q 421 576 438 619 q 394 479 404 532 l 513 479 l 513 400 l 385 400 q 383 369 383 385 q 381 335 382 353 l 543 335 l 543 256 l 379 256 q 378 171 378 215 q 378 76 378 126 l 299 76 q 299 171 299 126 q 297 256 299 215 l 133 256 l 133 335 l 296 335 q 294 369 294 353 q 292 400 293 385 l 164 400 l 164 479 l 282 479 z "},"ƒ":{"ha":529,"x_min":-7,"x_max":536,"o":"m 261 728 q 292 802 271 768 q 344 862 314 836 q 412 903 375 888 q 488 921 449 918 q 513 922 500 922 q 536 922 525 922 l 536 842 q 515 841 525 842 q 493 840 504 840 q 397 799 440 836 q 340 708 353 761 q 336 689 338 699 q 332 669 335 679 l 417 669 l 417 588 l 318 588 l 318 586 l 292 375 q 282 308 288 342 q 268 243 276 275 q 237 169 258 204 q 185 109 215 135 q 119 67 156 83 q 42 49 82 51 q 17 48 29 49 q -7 47 4 47 l -7 129 q 15 129 4 129 q 36 131 25 129 q 88 143 63 132 q 133 172 113 154 q 168 212 153 189 q 189 261 183 235 q 202 323 196 293 q 211 385 208 353 l 236 588 l 143 588 l 143 669 l 249 669 l 261 728 z "},"©":{"ha":850,"x_min":104,"x_max":746,"o":"m 425 208 q 533 231 482 208 q 621 290 583 253 q 681 378 658 328 q 703 486 703 429 q 681 594 703 543 q 621 682 658 644 q 533 742 583 719 q 425 764 482 764 q 317 742 368 764 q 229 682 267 719 q 169 594 192 644 q 147 486 147 543 q 169 378 147 429 q 229 290 192 328 q 317 231 267 253 q 425 208 368 208 m 425 807 q 550 782 492 807 q 652 713 608 757 q 721 611 696 669 q 746 486 746 553 q 721 361 746 419 q 652 259 696 303 q 550 190 608 215 q 425 165 492 165 q 300 190 358 165 q 198 259 242 215 q 129 361 154 303 q 104 486 104 419 q 129 611 104 553 q 198 713 154 669 q 300 782 242 757 q 425 807 358 807 m 403 665 q 356 644 375 663 q 333 599 336 626 q 326 486 326 538 q 333 374 326 435 q 356 328 336 346 q 403 307 375 310 q 508 324 458 303 l 524 283 q 419 264 476 264 l 400 264 q 326 297 357 267 q 290 369 296 326 q 283 486 283 432 q 290 603 283 540 q 326 676 296 646 q 400 708 357 706 q 524 689 464 713 l 508 649 q 403 665 458 669 z "},"®":{"ha":850,"x_min":104,"x_max":746,"o":"m 425 208 q 533 231 482 208 q 621 290 583 253 q 681 378 658 328 q 703 486 703 429 q 681 594 703 543 q 621 682 658 644 q 533 742 583 719 q 425 764 482 764 q 317 742 368 764 q 229 682 267 719 q 169 594 192 644 q 147 486 147 543 q 169 378 147 429 q 229 290 192 328 q 317 231 267 253 q 425 208 368 208 m 425 807 q 550 782 492 807 q 652 713 608 757 q 721 611 696 669 q 746 486 746 553 q 721 361 746 419 q 652 259 696 303 q 550 190 608 215 q 425 165 492 165 q 300 190 358 165 q 198 259 242 215 q 129 361 154 303 q 104 486 104 419 q 129 611 104 553 q 198 713 154 669 q 300 782 242 757 q 425 807 358 807 m 361 649 l 361 506 l 453 506 q 479 515 468 506 q 493 540 490 525 q 493 615 499 576 q 479 640 490 631 q 453 649 468 649 l 361 649 m 535 533 q 517 492 532 510 q 482 468 503 475 l 563 281 l 515 281 l 438 463 l 361 463 l 361 281 l 319 281 l 319 671 q 325 686 319 681 q 340 692 331 692 l 453 692 q 506 672 483 692 q 535 622 529 653 q 535 533 543 578 z "},"¤":{"ha":636,"x_min":104,"x_max":532,"o":"m 236 404 q 319 369 271 369 q 401 404 367 369 q 435 486 435 438 q 401 568 435 535 q 318 603 367 603 q 274 594 296 603 q 236 568 253 586 q 201 486 201 535 q 236 404 201 438 m 472 700 l 532 640 l 488 596 q 521 486 521 543 q 488 376 521 429 l 532 332 l 472 272 l 428 317 q 318 285 379 285 q 208 317 260 285 l 164 272 l 104 332 l 149 376 q 117 486 117 426 q 149 596 117 546 l 104 640 l 164 700 l 208 656 q 318 688 258 688 q 428 656 378 688 l 472 700 z "},"°":{"ha":404,"x_min":7,"x_max":300,"o":"m 153 764 q 197 782 179 764 q 215 826 215 800 q 197 870 215 851 q 153 889 179 889 q 109 870 128 889 q 90 826 90 851 q 109 782 90 800 q 153 764 128 764 m 153 972 q 210 961 183 972 q 256 930 236 950 q 288 883 276 910 q 300 826 300 857 q 288 769 300 796 q 256 723 276 743 q 210 691 236 703 q 153 679 183 679 q 96 691 122 679 q 50 723 69 703 q 19 769 31 743 q 7 826 7 796 q 19 883 7 857 q 50 930 31 910 q 96 961 69 950 q 153 972 122 972 z "},"A":{"ha":733,"x_min":21,"x_max":713,"o":"m 215 446 l 511 446 l 400 886 l 326 886 l 215 446 m 713 0 l 625 0 l 533 361 l 194 361 l 108 0 l 21 0 l 253 940 q 267 963 256 954 q 293 972 278 972 l 433 972 q 460 963 449 972 q 475 940 472 954 l 713 0 z "},"B":{"ha":758,"x_min":104,"x_max":682,"o":"m 586 194 q 593 247 590 224 q 596 291 596 269 q 593 335 596 313 q 586 388 590 358 q 543 467 579 436 q 458 497 507 497 l 190 497 l 190 86 l 458 86 q 543 116 507 86 q 586 194 579 146 m 563 768 q 520 853 557 819 q 432 886 483 886 l 190 886 l 190 582 l 432 582 q 519 613 483 582 q 561 690 556 643 q 563 713 563 704 q 564 729 564 722 q 564 745 564 736 q 563 768 564 754 m 671 401 q 679 342 676 368 q 682 292 682 317 q 679 240 682 267 q 671 181 676 214 q 647 109 665 142 q 600 53 628 76 q 537 15 572 29 q 463 0 501 1 l 458 0 l 147 0 l 144 0 q 116 13 128 1 q 104 43 104 25 l 104 929 q 116 959 104 947 q 144 972 128 971 l 147 972 l 432 972 l 438 972 q 515 956 479 971 q 579 915 551 940 q 625 853 607 889 q 647 776 643 818 q 649 749 649 760 q 650 728 650 738 q 649 708 650 718 q 646 681 649 697 q 623 606 642 640 q 575 547 604 572 q 638 486 613 524 q 671 401 663 449 z "},"C":{"ha":685,"x_min":76,"x_max":636,"o":"m 350 900 q 287 883 317 897 q 234 847 257 869 q 197 795 211 825 q 178 732 182 765 q 166 602 169 661 q 163 486 163 543 q 166 370 163 429 q 178 240 169 311 q 233 124 185 171 q 350 72 282 78 q 604 113 479 64 l 636 33 q 492 -6 565 6 q 344 -12 419 -18 q 251 10 294 -10 q 175 63 208 31 q 120 138 142 94 q 93 231 99 181 q 81 367 85 306 q 76 486 76 428 q 81 606 76 544 q 93 742 85 667 q 120 834 99 792 q 175 909 142 876 q 251 961 208 942 q 344 985 294 981 q 636 939 494 996 l 604 860 q 350 900 479 908 z "},"D":{"ha":807,"x_min":104,"x_max":731,"o":"m 633 260 q 642 377 639 322 q 644 486 644 432 q 642 595 644 540 q 633 713 639 650 q 614 781 631 750 q 572 836 597 813 q 513 873 546 860 q 442 886 479 886 l 190 886 l 190 86 l 442 86 q 513 99 479 86 q 572 136 546 113 q 614 191 597 160 q 633 260 631 222 m 718 719 q 728 599 725 656 q 731 486 731 542 q 728 374 731 431 q 718 253 725 317 q 691 153 714 199 q 631 74 668 107 q 547 21 594 40 q 446 0 500 1 l 144 0 q 116 13 128 1 q 104 43 104 25 l 104 929 q 116 959 104 947 q 144 972 128 971 l 446 972 q 547 951 500 971 q 631 899 594 932 q 691 819 668 865 q 718 719 714 774 z "},"E":{"ha":646,"x_min":104,"x_max":597,"o":"m 104 929 q 117 960 104 947 q 147 972 129 972 l 597 972 l 597 886 l 190 886 l 190 572 l 461 572 l 461 486 l 190 486 l 190 86 l 597 86 l 597 0 l 147 0 q 117 13 129 0 q 104 43 104 25 l 104 929 z "},"F":{"ha":646,"x_min":104,"x_max":597,"o":"m 104 929 q 117 960 104 947 q 147 972 129 972 l 597 972 l 597 886 l 190 886 l 190 572 l 461 572 l 461 486 l 190 486 l 190 0 l 104 0 l 104 929 z "},"G":{"ha":764,"x_min":69,"x_max":694,"o":"m 651 529 q 682 517 669 529 q 694 486 694 504 q 693 415 694 447 q 690 352 692 383 q 684 288 688 321 q 676 215 681 256 q 651 132 671 171 q 602 63 632 93 q 533 13 572 32 q 450 -11 494 -7 q 314 -11 382 -17 q 231 13 269 -7 q 162 63 192 32 q 113 132 132 93 q 88 215 93 171 q 74 358 79 293 q 69 486 69 424 q 74 613 69 549 q 88 756 79 678 q 113 840 93 800 q 162 910 132 879 q 231 959 192 940 q 314 982 269 978 q 628 939 476 999 l 597 860 q 322 897 464 913 q 222 849 264 890 q 172 746 179 807 q 159 608 164 671 q 154 486 154 546 q 159 364 154 426 q 172 225 164 301 q 222 123 179 165 q 322 75 264 81 q 440 75 382 69 q 542 123 500 81 q 592 225 585 165 q 603 340 599 292 q 608 443 607 388 l 446 443 l 446 529 l 651 529 z "},"H":{"ha":776,"x_min":104,"x_max":672,"o":"m 672 972 l 672 0 l 586 0 l 586 485 l 190 485 l 190 0 l 104 0 l 104 972 l 190 972 l 190 571 l 586 571 l 586 972 l 672 972 z "},"I":{"ha":389,"x_min":76,"x_max":313,"o":"m 313 972 l 313 886 l 238 886 l 238 86 l 313 86 l 313 0 l 76 0 l 76 86 l 151 86 l 151 886 l 76 886 l 76 972 l 313 972 z "},"J":{"ha":686,"x_min":21,"x_max":582,"o":"m 497 972 l 582 972 l 582 231 q 543 97 582 151 q 444 15 504 43 q 315 -16 385 -14 q 182 6 244 -18 q 75 79 119 29 q 21 206 31 129 l 104 215 q 141 131 110 165 q 216 81 172 97 q 309 67 260 65 q 400 87 358 68 q 469 142 442 106 q 497 231 497 178 l 497 972 z "},"K":{"ha":653,"x_min":104,"x_max":646,"o":"m 638 972 l 311 485 l 646 3 l 543 3 l 249 426 q 217 443 236 443 l 189 443 l 189 0 l 104 0 l 104 971 l 189 971 l 189 528 l 217 528 q 249 544 236 528 l 535 972 l 638 972 z "},"L":{"ha":604,"x_min":104,"x_max":597,"o":"m 190 972 l 190 86 l 597 86 l 597 0 l 147 0 q 117 13 129 0 q 104 43 104 25 l 104 972 l 190 972 z "},"M":{"ha":906,"x_min":104,"x_max":801,"o":"m 801 929 l 801 0 l 715 0 l 715 883 l 688 883 l 489 508 q 453 488 478 488 q 415 508 429 488 l 218 883 l 190 883 l 190 0 l 104 0 l 104 929 q 117 960 104 947 q 147 972 129 972 l 249 972 q 286 951 272 972 l 453 615 l 619 951 q 657 972 633 972 l 758 972 q 789 960 776 972 q 801 929 801 947 z "},"N":{"ha":844,"x_min":104,"x_max":740,"o":"m 654 86 l 654 972 l 740 972 l 740 43 q 728 13 740 25 q 697 0 715 0 l 589 0 q 547 31 557 0 l 222 886 l 190 886 l 190 0 l 104 0 l 104 929 q 117 960 104 947 q 147 972 129 972 l 256 972 q 296 942 286 972 l 621 86 l 654 86 z "},"O":{"ha":764,"x_min":69,"x_max":694,"o":"m 593 242 q 605 372 601 313 q 608 487 608 431 q 605 602 608 543 q 593 732 601 661 q 555 827 588 789 q 478 884 522 865 q 382 903 433 903 q 286 884 331 903 q 210 827 242 865 q 171 732 178 789 q 159 602 163 661 q 156 487 156 543 q 159 372 156 431 q 171 242 163 313 q 210 146 178 185 q 286 88 242 107 q 382 69 331 69 q 478 89 433 69 q 554 147 522 108 q 593 242 586 185 m 678 740 q 690 606 686 667 q 694 486 694 544 q 690 367 694 428 q 678 232 686 306 q 624 94 669 149 q 516 11 579 39 q 381 -16 453 -17 q 247 13 310 -15 q 140 95 185 40 q 86 232 94 150 q 74 367 78 306 q 69 486 69 428 q 74 606 69 544 q 86 740 78 667 q 140 879 96 824 q 248 962 185 935 q 383 989 311 989 q 517 961 454 989 q 624 878 579 933 q 678 740 669 822 z "},"P":{"ha":706,"x_min":104,"x_max":685,"o":"m 589 572 q 596 624 593 601 q 599 669 599 647 q 596 715 599 692 q 589 767 593 738 q 544 850 581 814 q 460 886 508 886 l 190 886 l 190 463 l 460 463 q 544 493 508 463 q 589 572 581 524 m 460 972 q 536 957 500 972 q 600 915 572 942 q 647 854 628 889 q 674 781 667 819 q 682 721 679 747 q 685 669 685 694 q 682 617 685 643 q 674 557 679 590 q 647 485 667 518 q 600 428 628 451 q 536 390 572 404 q 460 376 500 376 l 190 376 l 190 0 l 104 0 l 104 908 q 111 952 104 932 q 147 972 118 972 l 460 972 z "},"Q":{"ha":746,"x_min":69,"x_max":676,"o":"m 579 239 q 590 369 586 308 q 594 489 594 429 q 590 609 594 549 q 579 739 586 669 q 542 831 574 794 q 467 886 511 868 q 374 904 424 904 q 280 886 324 904 q 205 831 236 868 q 168 739 174 794 q 156 609 160 669 q 153 489 153 549 q 156 369 153 429 q 168 239 160 308 q 210 142 175 181 q 293 85 244 103 q 395 72 342 68 q 490 100 449 75 l 467 124 q 372 265 406 186 q 339 432 339 344 l 422 432 q 449 297 422 361 q 525 182 476 233 l 550 157 q 579 239 572 192 m 661 747 q 673 613 669 675 q 676 488 676 550 q 673 364 676 426 q 661 229 669 301 q 643 158 657 192 q 608 96 629 124 l 654 47 l 594 -10 l 549 39 q 409 -12 486 -6 q 263 8 332 -18 q 144 90 194 33 q 85 229 94 146 q 73 364 76 301 q 69 488 69 426 q 73 613 69 550 q 85 747 76 675 q 137 881 93 828 q 242 961 181 935 q 373 988 303 988 q 504 961 443 988 q 609 881 565 935 q 661 747 653 828 z "},"R":{"ha":721,"x_min":104,"x_max":681,"o":"m 585 575 q 592 627 589 604 q 594 672 594 650 q 592 716 594 693 q 585 768 589 739 q 569 813 581 792 q 541 851 558 835 q 502 878 524 868 q 457 888 481 888 l 189 888 l 189 476 l 189 467 l 457 467 q 542 497 506 467 q 585 575 578 528 m 669 561 q 618 453 658 499 q 519 390 578 408 l 676 0 l 585 0 l 431 381 l 189 381 l 189 0 l 104 0 l 104 929 q 117 960 104 947 q 147 972 129 972 l 457 972 q 533 957 497 972 q 596 916 568 942 q 643 856 624 890 q 669 782 663 821 q 678 723 675 749 q 681 672 681 697 q 678 621 681 647 q 669 561 675 594 z "},"S":{"ha":664,"x_min":31,"x_max":633,"o":"m 497 450 q 546 417 521 436 q 591 372 571 399 q 622 308 611 344 q 628 225 633 272 q 601 137 622 178 q 549 64 581 96 q 474 13 517 32 q 385 -11 432 -7 q 85 33 231 -24 l 117 113 q 245 78 179 88 q 378 74 311 68 q 438 90 410 76 q 489 124 467 103 q 525 174 511 146 q 543 235 539 203 q 528 313 549 281 q 456 375 508 344 q 311 449 383 411 q 167 522 239 486 q 118 556 143 536 q 73 602 93 575 q 42 665 53 629 q 36 749 31 701 q 63 838 42 796 q 115 910 83 879 q 190 960 147 942 q 279 983 232 979 q 578 939 432 996 l 547 860 q 286 899 421 910 q 226 883 254 896 q 175 847 197 869 q 139 797 153 825 q 121 738 125 769 q 135 660 115 692 q 208 596 156 628 q 353 523 281 560 q 497 450 425 486 z "},"T":{"ha":688,"x_min":76,"x_max":611,"o":"m 611 972 l 611 886 l 386 886 l 386 0 l 301 0 l 301 886 l 76 886 l 76 972 l 611 972 z "},"U":{"ha":792,"x_min":90,"x_max":701,"o":"m 618 972 l 701 972 l 701 489 q 701 419 701 451 q 698 356 700 388 q 693 294 696 325 q 686 228 690 263 q 633 93 678 147 q 527 12 589 39 q 395 -15 465 -15 q 263 12 325 -15 q 158 93 201 39 q 106 228 114 147 q 99 294 101 263 q 94 356 96 325 q 91 419 92 388 q 90 489 90 451 l 90 972 l 174 972 l 174 489 q 178 362 174 418 q 189 238 182 306 q 226 144 194 182 q 301 87 257 106 q 395 68 344 68 q 490 87 446 68 q 565 143 533 106 q 603 238 597 181 q 614 362 610 306 q 618 489 618 418 l 618 972 z "},"V":{"ha":785,"x_min":49,"x_max":736,"o":"m 424 85 l 649 972 l 736 972 l 497 32 q 467 1 493 8 q 457 0 464 0 l 326 0 q 317 1 321 0 q 286 32 290 8 l 49 972 l 136 972 l 360 85 l 424 85 z "},"W":{"ha":839,"x_min":35,"x_max":804,"o":"m 649 85 l 719 972 l 804 972 l 731 43 q 722 16 731 28 q 697 1 713 4 q 688 0 694 0 l 589 0 q 578 1 582 0 q 549 29 556 6 l 419 422 l 292 29 q 261 1 282 6 q 250 0 257 0 l 151 0 q 142 1 144 0 q 110 43 110 8 l 110 43 l 35 972 l 121 972 l 192 85 l 219 85 l 379 574 q 394 594 383 586 q 419 603 406 603 q 444 594 433 603 q 460 574 456 586 l 619 85 l 649 85 z "},"X":{"ha":664,"x_min":49,"x_max":615,"o":"m 615 972 l 438 481 l 611 0 l 521 0 l 363 438 l 303 438 l 144 0 l 54 0 l 228 481 l 49 972 l 139 972 l 303 524 l 363 524 l 525 972 l 615 972 z "},"Y":{"ha":639,"x_min":35,"x_max":604,"o":"m 256 436 q 215 464 226 436 l 35 972 l 125 972 l 286 522 l 350 522 l 513 972 l 604 972 l 422 469 q 403 445 415 454 q 375 436 390 436 l 363 436 l 363 0 l 276 0 l 276 436 l 256 436 z "},"Z":{"ha":633,"x_min":49,"x_max":585,"o":"m 542 972 q 572 960 560 972 q 583 929 583 947 l 583 849 q 578 825 583 835 l 135 113 l 135 86 l 585 86 l 585 0 l 92 0 q 61 13 74 0 q 49 43 49 25 l 49 124 q 56 147 49 136 l 499 860 l 499 886 l 49 886 l 49 972 l 542 972 z "},"a":{"ha":653,"x_min":69,"x_max":583,"o":"m 361 69 q 416 83 390 71 q 460 114 442 94 q 490 158 479 133 q 501 213 501 183 q 501 259 501 236 q 500 306 501 282 q 477 323 494 314 q 438 340 460 332 q 393 352 415 347 q 354 357 371 357 q 319 357 332 357 q 285 356 306 357 q 190 313 226 353 q 153 214 153 272 l 153 211 q 188 113 153 153 q 283 69 224 72 l 361 69 m 583 0 l 501 0 l 501 39 q 413 -6 460 7 q 372 -12 396 -10 q 322 -14 347 -14 q 272 -12 296 -14 q 231 -6 247 -10 q 113 73 156 14 q 69 211 69 132 l 69 215 q 85 300 69 260 q 129 370 101 340 q 196 419 157 400 q 281 439 235 438 q 318 440 304 440 q 356 439 332 440 q 416 431 376 439 q 494 406 456 422 q 447 501 488 463 q 349 543 407 540 q 131 518 236 547 l 108 599 q 351 625 225 632 q 435 607 396 624 q 503 563 474 590 q 553 497 533 535 q 576 417 572 460 q 582 353 581 385 q 583 289 583 321 l 583 0 z "},"b":{"ha":689,"x_min":104,"x_max":619,"o":"m 189 89 q 372 71 276 68 q 481 107 439 74 q 529 199 522 140 q 533 250 532 226 q 535 297 535 274 q 533 343 535 319 q 529 394 532 367 q 478 499 522 457 q 372 544 433 542 q 189 528 279 549 l 189 89 m 104 972 l 189 972 l 189 614 q 265 626 225 622 q 336 631 297 629 q 407 626 375 632 q 483 599 447 619 q 547 550 519 579 q 591 483 574 521 q 613 403 608 446 q 617 347 615 372 q 619 297 619 321 q 617 247 619 272 q 613 190 615 221 q 583 96 607 135 q 522 33 558 57 q 439 -3 485 8 q 344 -14 393 -14 q 222 -4 279 -14 q 178 3 200 -1 q 135 15 157 8 q 113 29 121 18 q 104 56 104 40 l 104 972 z "},"c":{"ha":624,"x_min":69,"x_max":540,"o":"m 308 543 q 207 500 250 540 q 157 400 164 460 q 153 350 154 372 q 151 306 151 328 q 153 263 151 285 q 157 213 154 240 q 207 113 164 154 q 308 69 250 72 q 414 72 361 67 q 518 93 467 78 l 540 14 q 304 -14 424 -18 q 220 6 260 -12 q 150 53 181 24 q 99 121 119 82 q 75 204 79 160 q 71 259 72 235 q 69 306 69 283 q 71 353 69 329 q 75 408 72 378 q 99 492 79 453 q 150 560 119 531 q 220 607 181 589 q 304 626 260 625 q 540 599 424 631 l 518 519 q 308 543 414 549 z "},"d":{"ha":689,"x_min":69,"x_max":585,"o":"m 500 528 q 317 544 411 549 q 210 499 254 542 q 160 394 167 457 q 156 343 157 367 q 154 297 154 319 q 156 250 154 274 q 160 199 157 226 q 208 107 165 140 q 317 71 250 74 q 500 89 413 68 l 500 528 m 585 56 q 576 29 585 40 q 553 15 568 18 q 344 -14 451 -14 q 249 -3 296 -14 q 166 33 203 8 q 105 97 129 58 q 75 190 81 136 q 71 247 72 221 q 69 297 69 272 q 71 347 69 321 q 75 403 72 372 q 97 483 79 446 q 142 550 114 521 q 206 599 169 579 q 282 626 242 619 q 391 629 329 635 q 500 614 453 624 l 500 972 l 585 972 l 585 56 z "},"e":{"ha":668,"x_min":69,"x_max":606,"o":"m 521 346 q 519 374 519 360 q 517 403 518 389 q 485 483 513 451 q 420 530 458 514 q 338 546 382 546 q 256 530 294 546 q 190 481 218 514 q 158 401 163 449 q 155 372 156 386 q 153 346 154 358 l 521 346 m 606 306 q 594 275 606 288 q 564 263 582 263 l 153 263 q 156 236 154 249 q 158 208 157 224 q 176 155 161 179 q 213 112 190 131 q 263 82 235 93 q 319 69 290 71 q 433 73 374 67 q 546 93 493 79 l 568 14 q 517 3 546 7 q 464 -6 488 -1 q 349 -14 408 -14 q 253 -1 300 -14 q 169 40 207 13 q 107 107 132 67 q 76 200 82 147 q 72 243 74 222 q 69 288 69 264 q 70 341 69 311 q 75 410 71 371 q 123 533 83 483 q 218 606 163 582 q 337 631 274 631 q 456 606 400 631 q 551 533 511 582 q 599 413 592 485 q 602 377 601 396 q 604 342 603 358 q 606 316 606 326 q 606 306 606 306 z "},"f":{"ha":372,"x_min":35,"x_max":407,"o":"m 363 886 q 269 844 308 882 q 224 753 231 807 q 219 684 221 726 q 217 615 217 642 l 354 615 l 354 531 l 215 531 l 215 0 l 131 0 l 131 531 l 35 531 l 35 615 l 131 615 q 132 650 131 631 q 134 690 133 669 q 136 729 135 710 q 139 763 138 749 q 162 842 143 806 q 210 907 181 879 q 276 951 239 935 q 357 971 314 968 q 382 972 369 972 q 407 972 394 972 l 407 888 q 385 887 396 888 q 363 886 374 886 z "},"g":{"ha":688,"x_min":69,"x_max":583,"o":"m 499 528 q 315 544 408 549 q 210 503 254 542 q 160 401 167 464 q 156 350 157 374 q 154 303 154 326 q 156 256 154 281 q 160 204 157 232 q 207 110 165 146 q 315 71 249 74 q 408 73 363 68 q 499 88 454 78 l 499 528 m 583 -107 q 567 -193 583 -153 q 523 -265 551 -233 q 456 -318 494 -297 q 374 -344 418 -339 q 249 -342 318 -351 q 129 -312 181 -332 l 157 -233 q 249 -256 203 -250 q 344 -262 296 -262 q 404 -250 376 -262 q 453 -217 432 -237 q 486 -167 474 -196 q 499 -107 499 -139 l 499 1 q 406 -12 453 -8 q 313 -14 360 -15 q 226 3 267 -12 q 153 45 185 18 q 100 110 121 72 q 75 196 79 149 q 71 252 72 226 q 69 303 69 278 q 71 353 69 328 q 75 410 72 379 q 97 488 79 451 q 141 553 114 525 q 204 600 168 581 q 281 626 240 619 q 351 631 313 632 q 421 626 390 629 q 551 601 490 618 q 583 561 583 592 l 583 -107 z "},"h":{"ha":701,"x_min":104,"x_max":625,"o":"m 625 0 l 539 0 l 539 275 q 538 333 539 304 q 533 392 536 363 q 482 497 526 454 q 375 543 438 540 q 190 526 281 547 l 190 0 l 104 0 l 104 972 l 190 972 l 190 614 q 379 629 285 633 q 467 609 425 628 q 541 560 508 590 q 594 488 574 529 q 619 400 615 447 q 624 338 622 368 q 625 275 625 307 l 625 0 z "},"i":{"ha":251,"x_min":69,"x_max":182,"o":"m 78 615 l 174 615 l 174 0 l 78 0 l 78 615 m 126 799 q 86 815 103 799 q 69 856 69 832 q 86 895 69 879 q 126 911 103 911 q 166 895 150 911 q 182 856 182 879 q 166 815 182 832 q 126 799 150 799 z "},"j":{"ha":286,"x_min":-69,"x_max":210,"o":"m 201 -12 q 199 -77 201 -46 q 193 -143 197 -108 q 170 -221 189 -185 q 123 -284 151 -257 q 58 -328 94 -311 q -19 -347 22 -344 q -44 -349 -32 -349 q -69 -349 -57 -349 l -69 -265 q -47 -265 -58 -265 q -25 -264 -36 -265 q 25 -252 1 -262 q 67 -224 49 -242 q 97 -183 85 -206 q 111 -133 108 -160 q 116 -73 114 -101 q 118 -12 118 -44 l 118 615 l 201 615 l 201 -12 m 160 897 q 195 883 181 897 q 210 849 210 868 q 195 813 210 828 q 160 799 181 799 q 124 813 139 799 q 110 849 110 828 q 124 883 110 868 q 160 897 139 897 z "},"k":{"ha":563,"x_min":104,"x_max":563,"o":"m 563 0 l 449 0 l 226 253 q 206 263 218 263 l 190 263 l 190 0 l 104 0 l 104 972 l 190 972 l 190 349 l 206 349 q 226 358 218 349 l 447 611 l 561 611 l 294 306 l 294 306 l 563 0 z "},"m":{"ha":1132,"x_min":104,"x_max":1042,"o":"m 1042 0 l 958 0 l 958 281 q 957 338 958 308 q 953 394 956 367 q 902 499 946 457 q 797 543 858 540 q 747 543 772 546 q 697 531 721 543 q 654 501 672 519 q 626 457 636 482 q 615 404 615 432 l 615 281 l 615 0 l 531 0 l 531 281 q 529 338 531 308 q 525 394 528 367 q 474 499 518 457 q 369 543 431 540 q 188 526 278 547 l 188 0 l 104 0 l 104 560 q 135 600 104 590 q 374 628 251 632 q 482 597 432 625 q 564 522 532 568 q 639 597 592 568 q 744 628 686 625 l 800 628 q 887 608 846 626 q 959 560 928 590 q 1011 489 990 529 q 1036 403 1032 449 q 1040 342 1039 372 q 1042 281 1042 311 l 1042 0 z "},"n":{"ha":706,"x_min":104,"x_max":615,"o":"m 615 0 l 532 0 l 532 281 q 531 339 532 310 q 526 396 529 368 q 476 500 519 458 q 371 544 432 542 q 188 528 278 549 l 188 0 l 104 0 l 104 560 q 113 586 104 575 q 135 600 121 597 q 374 628 254 633 q 460 608 419 626 q 533 560 501 590 q 585 490 564 531 q 610 404 606 450 q 614 342 613 372 q 615 281 615 313 l 615 0 z "},"o":{"ha":676,"x_min":65,"x_max":611,"o":"m 156 392 q 156 222 149 308 q 188 138 160 171 q 254 88 215 104 q 338 71 293 71 q 422 88 383 71 q 489 139 461 106 q 521 222 517 172 q 521 392 528 308 q 489 477 517 443 q 422 528 461 511 q 338 544 383 544 q 254 527 293 544 q 188 476 215 510 q 156 392 160 442 m 603 215 q 556 90 596 140 q 460 14 517 39 q 338 -11 403 -11 q 217 14 274 -11 q 120 90 160 39 q 74 215 81 140 q 74 400 65 308 q 120 526 81 475 q 217 601 160 576 q 338 626 274 626 q 460 601 403 626 q 556 526 517 576 q 603 400 596 476 q 603 215 611 308 z "},"p":{"ha":690,"x_min":104,"x_max":622,"o":"m 189 88 q 374 71 279 68 q 479 114 435 74 q 531 214 524 154 q 536 308 536 267 q 531 403 536 350 q 480 494 524 461 q 374 531 436 528 q 189 514 279 533 l 189 88 m 104 -347 l 104 547 q 113 574 104 563 q 136 588 121 585 q 376 615 256 619 q 465 598 424 614 q 539 556 507 582 q 591 493 571 529 q 615 413 611 457 q 622 308 622 354 q 615 204 622 263 q 592 126 611 163 q 545 60 574 89 q 480 13 517 32 q 401 -11 443 -6 q 340 -15 374 -15 q 278 -11 306 -14 q 189 1 232 -7 l 189 -347 l 104 -347 z "},"r":{"ha":461,"x_min":104,"x_max":392,"o":"m 104 0 l 104 615 l 186 615 l 186 544 q 276 607 221 585 q 392 628 331 629 l 392 546 q 317 533 353 547 q 253 494 281 519 q 209 435 226 469 q 189 360 192 400 q 187 325 188 342 q 186 290 186 308 l 186 0 l 104 0 z "},"s":{"ha":540,"x_min":47,"x_max":493,"o":"m 375 89 q 401 114 392 99 q 410 149 411 129 q 399 183 410 168 q 371 208 389 199 l 133 331 q 72 385 94 350 q 49 463 50 421 q 68 539 47 504 q 126 594 89 574 q 178 617 150 610 q 235 625 207 624 q 474 600 357 631 l 453 521 q 347 540 400 535 q 239 543 293 546 q 167 524 199 543 q 131 464 131 504 q 141 429 131 444 q 169 404 151 414 l 408 282 q 472 226 451 260 q 492 150 492 192 q 472 73 493 108 q 414 17 451 38 q 306 -12 367 -10 q 67 13 183 -19 l 88 92 q 194 72 140 78 q 303 69 247 67 q 375 89 340 69 z "},"t":{"ha":472,"x_min":35,"x_max":438,"o":"m 156 221 q 147 365 147 292 l 147 525 l 35 525 l 35 615 l 147 615 l 147 847 l 236 847 l 236 615 l 438 615 l 438 525 l 236 525 l 236 365 q 244 231 236 297 q 292 133 251 172 q 390 92 332 94 q 414 90 401 90 q 438 90 426 90 l 438 0 q 411 0 424 0 q 385 1 399 0 q 301 22 340 4 q 231 69 261 40 q 181 138 200 99 q 156 221 161 176 z "},"u":{"ha":703,"x_min":90,"x_max":599,"o":"m 90 615 l 174 615 l 174 332 q 175 274 174 303 q 179 218 176 246 q 230 115 186 157 q 333 69 274 72 q 515 88 428 67 l 515 615 l 599 615 l 599 54 q 568 14 599 24 q 331 -14 449 -18 q 244 6 285 -12 q 173 54 204 24 q 121 124 142 85 q 96 210 100 164 q 92 270 93 240 q 90 332 90 300 l 90 615 z "},"v":{"ha":653,"x_min":69,"x_max":583,"o":"m 256 3 q 229 31 233 10 l 69 615 l 157 615 l 301 85 l 347 85 l 496 615 l 583 615 l 419 31 q 393 3 415 10 q 379 0 385 0 l 269 0 q 256 3 264 0 z "},"w":{"ha":842,"x_min":69,"x_max":772,"o":"m 167 0 q 142 14 151 3 q 132 40 132 25 l 69 615 l 153 615 l 210 82 l 235 82 l 383 397 q 421 421 396 421 q 458 397 447 421 l 607 82 l 632 82 l 690 615 l 772 615 l 710 36 q 676 0 707 7 l 669 0 l 581 0 l 574 0 q 543 24 551 6 l 421 283 l 299 24 q 268 0 290 4 l 261 0 l 174 0 l 167 0 z "},"x":{"ha":610,"x_min":69,"x_max":540,"o":"m 540 615 l 401 308 l 540 0 l 449 0 l 328 267 l 283 267 l 161 0 l 69 0 l 210 308 l 71 615 l 163 615 l 283 350 l 328 350 l 449 615 l 540 615 z "},"y":{"ha":689,"x_min":69,"x_max":619,"o":"m 342 0 l 290 0 q 265 8 275 0 q 250 29 254 17 l 69 615 l 157 615 l 321 83 l 368 83 l 532 615 l 619 615 l 322 -347 l 235 -347 l 342 0 z "},"z":{"ha":485,"x_min":69,"x_max":415,"o":"m 415 533 q 410 513 415 522 l 161 83 l 415 83 l 415 0 l 110 0 q 81 12 93 0 q 69 40 69 24 l 69 82 q 75 103 69 93 l 324 532 l 69 532 l 69 615 l 375 615 q 403 603 392 615 q 415 575 415 592 l 415 533 z "},"q":{"ha":690,"x_min":69,"x_max":586,"o":"m 501 514 q 317 531 411 533 q 210 494 254 528 q 160 403 167 461 q 154 308 154 350 q 160 214 154 267 q 211 114 167 154 q 317 71 256 74 q 501 88 411 68 l 501 514 m 501 -347 l 501 1 q 408 -12 454 -8 q 314 -14 363 -15 q 227 5 268 -12 q 154 51 186 22 q 101 119 122 81 q 75 204 81 158 q 69 308 69 263 q 75 413 69 354 q 100 493 79 457 q 153 556 121 529 q 226 598 185 582 q 314 615 267 614 q 556 588 436 619 q 578 574 569 585 q 586 547 586 563 l 586 -347 l 501 -347 z "},",":{"ha":318,"x_min":35,"x_max":214,"o":"m 92 -308 l 36 -247 q 106 -151 81 -207 q 131 -33 131 -96 l 131 -1 l 35 -1 l 35 83 l 214 83 l 214 -33 q 182 -184 214 -112 q 92 -308 150 -256 z "},".":{"ha":274,"x_min":35,"x_max":169,"o":"m 103 133 q 150 114 131 133 q 169 67 169 94 q 150 19 169 39 q 103 -1 131 -1 q 55 19 75 -1 q 35 67 35 39 q 55 114 35 94 q 103 133 75 133 z "},"(":{"ha":450,"x_min":104,"x_max":346,"o":"m 346 896 q 238 794 279 867 q 192 631 197 722 q 189 555 190 590 q 188 486 188 519 q 189 417 188 453 q 192 342 190 382 q 238 178 197 250 q 346 76 279 106 l 311 0 q 169 130 224 39 q 108 338 115 221 q 106 415 107 379 q 104 486 104 451 q 106 557 104 521 q 108 635 107 593 q 169 842 115 751 q 311 972 224 933 l 346 896 z "},")":{"ha":450,"x_min":104,"x_max":346,"o":"m 258 342 q 262 417 261 382 q 263 486 263 453 q 262 555 263 519 q 258 631 261 590 q 212 794 253 722 q 104 896 171 867 l 138 972 q 218 919 182 953 q 281 842 254 886 q 323 746 307 799 q 342 635 339 693 q 345 557 344 593 q 346 486 346 521 q 345 415 346 451 q 342 338 344 379 q 323 226 339 279 q 281 130 307 174 q 218 53 254 86 q 138 0 182 19 l 104 76 q 212 178 171 106 q 258 342 253 250 z "},"{":{"ha":433,"x_min":104,"x_max":329,"o":"m 175 817 q 188 877 175 849 q 221 926 200 906 q 269 960 242 947 q 329 972 297 972 l 329 888 q 280 867 300 888 q 260 817 260 846 l 260 599 q 247 536 260 565 q 210 486 233 507 q 247 436 233 465 q 260 374 260 407 l 260 156 q 280 106 260 126 q 329 85 300 85 l 329 0 q 269 13 297 0 q 221 46 242 25 q 188 95 200 67 q 175 156 175 124 l 175 374 q 154 424 175 403 q 104 444 133 444 l 104 528 q 154 549 133 528 q 175 599 175 569 l 175 817 z "},"}":{"ha":433,"x_min":104,"x_max":329,"o":"m 260 599 q 280 549 260 569 q 329 528 300 528 l 329 444 q 280 424 300 444 q 260 374 260 403 l 260 156 q 247 95 260 124 q 214 46 235 67 q 165 13 193 25 q 104 0 136 0 l 104 85 q 154 106 133 85 q 175 156 175 126 l 175 374 q 188 436 175 407 q 224 486 200 465 q 175 599 175 531 l 175 817 q 154 867 175 846 q 104 888 133 888 l 104 972 q 165 960 136 972 q 214 926 193 947 q 247 877 235 906 q 260 817 260 849 l 260 599 z "},"“":{"ha":367,"x_min":104,"x_max":332,"o":"m 332 1188 l 332 889 l 249 889 l 249 1188 l 332 1188 m 188 1188 l 188 889 l 104 889 l 104 1188 l 188 1188 z "},"”":{"ha":367,"x_min":35,"x_max":263,"o":"m 263 1188 l 263 889 l 179 889 l 179 1188 l 263 1188 m 118 1188 l 118 889 l 35 889 l 35 1188 l 118 1188 z "},"×":{"ha":690,"x_min":104,"x_max":586,"o":"m 303 446 l 104 446 l 104 529 l 303 529 l 303 728 l 386 728 l 386 529 l 586 529 l 586 446 l 386 446 l 386 246 l 303 246 l 303 446 z "},"~":{"ha":738,"x_min":104,"x_max":633,"o":"m 465 474 q 515 495 492 474 q 554 556 539 517 l 633 525 q 563 426 607 463 q 465 390 518 390 q 397 407 424 390 q 351 444 371 424 q 313 482 331 465 q 272 499 296 499 q 222 477 246 499 q 183 417 199 456 l 104 447 q 175 546 131 510 q 272 582 219 582 q 339 565 313 582 q 385 528 365 549 q 424 490 406 507 q 465 474 442 474 z "},"À":{"ha":733,"x_min":21,"x_max":713,"o":"m 456 1156 l 236 1303 l 283 1375 l 504 1226 l 456 1156 m 215 446 l 511 446 l 400 886 l 326 886 l 215 446 m 713 0 l 625 0 l 533 361 l 194 361 l 108 0 l 21 0 l 253 940 q 267 963 256 954 q 293 972 278 972 l 433 972 q 460 963 449 972 q 475 940 472 954 l 713 0 z "},"Á":{"ha":733,"x_min":21,"x_max":713,"o":"m 215 446 l 511 446 l 400 886 l 326 886 l 215 446 m 713 0 l 625 0 l 533 361 l 194 361 l 108 0 l 21 0 l 253 940 q 267 963 256 954 q 293 972 278 972 l 433 972 q 460 963 449 972 q 475 940 472 954 l 713 0 m 429 1374 l 478 1303 l 257 1156 l 210 1226 l 429 1374 z "},"Â":{"ha":733,"x_min":21,"x_max":713,"o":"m 215 446 l 511 446 l 400 886 l 326 886 l 215 446 m 713 0 l 625 0 l 533 361 l 194 361 l 108 0 l 21 0 l 253 940 q 267 963 256 954 q 293 972 278 972 l 433 972 q 460 963 449 972 q 475 940 472 954 l 713 0 m 539 1225 l 493 1156 l 363 1243 l 232 1156 l 186 1225 l 363 1343 l 539 1225 z "},"Ã":{"ha":733,"x_min":21,"x_max":713,"o":"m 215 446 l 511 446 l 400 886 l 326 886 l 215 446 m 713 0 l 625 0 l 533 361 l 194 361 l 108 0 l 21 0 l 253 940 q 267 963 256 954 q 293 972 278 972 l 433 972 q 460 963 449 972 q 475 940 472 954 l 713 0 m 536 1235 q 486 1178 517 1199 q 419 1157 456 1157 q 376 1166 393 1157 q 346 1185 358 1175 q 324 1204 333 1196 q 301 1213 314 1213 q 260 1181 278 1213 l 186 1218 q 235 1275 204 1254 q 301 1296 265 1296 q 345 1288 328 1296 q 375 1269 363 1279 q 398 1249 388 1258 q 419 1240 408 1240 q 461 1272 446 1240 l 536 1235 z "},"Ä":{"ha":733,"x_min":21,"x_max":713,"o":"m 215 446 l 511 446 l 400 886 l 326 886 l 215 446 m 713 0 l 625 0 l 533 361 l 194 361 l 108 0 l 21 0 l 253 940 q 267 963 256 954 q 293 972 278 972 l 433 972 q 460 963 449 972 q 475 940 472 954 l 713 0 m 472 1279 q 515 1261 497 1279 q 533 1218 533 1243 q 515 1174 533 1192 q 472 1156 497 1156 q 428 1174 446 1156 q 410 1218 410 1192 q 428 1261 410 1243 q 472 1279 446 1279 m 258 1279 q 303 1261 285 1279 q 321 1218 321 1243 q 303 1174 321 1192 q 258 1156 285 1156 q 215 1174 233 1156 q 197 1218 197 1192 q 215 1261 197 1243 q 258 1279 233 1279 z "},"Å":{"ha":735,"x_min":21,"x_max":714,"o":"m 217 446 l 513 446 l 401 889 l 328 889 l 217 446 m 367 1135 q 311 1112 335 1135 q 288 1056 288 1089 q 311 1000 288 1024 q 367 976 335 976 q 424 1000 400 976 q 447 1056 447 1024 q 424 1112 447 1089 q 367 1135 400 1135 m 108 0 l 21 0 l 251 939 q 203 1056 203 985 q 216 1120 203 1090 q 251 1172 229 1150 q 303 1208 274 1194 q 367 1221 333 1221 q 431 1208 401 1221 q 483 1172 461 1194 q 519 1120 506 1150 q 532 1056 532 1090 q 517 988 532 1019 q 478 935 503 957 l 714 0 l 625 0 l 535 361 l 194 361 l 108 0 z "},"È":{"ha":646,"x_min":104,"x_max":597,"o":"m 104 929 q 117 960 104 947 q 147 972 129 972 l 597 972 l 597 886 l 190 886 l 190 572 l 461 572 l 461 486 l 190 486 l 190 86 l 597 86 l 597 0 l 147 0 q 117 13 129 0 q 104 43 104 25 l 104 929 m 456 1156 l 236 1303 l 283 1375 l 504 1226 l 456 1156 z "},"É":{"ha":646,"x_min":104,"x_max":597,"o":"m 104 929 q 117 960 104 947 q 147 972 129 972 l 597 972 l 597 886 l 190 886 l 190 572 l 461 572 l 461 486 l 190 486 l 190 86 l 597 86 l 597 0 l 147 0 q 117 13 129 0 q 104 43 104 25 l 104 929 m 456 1375 l 504 1303 l 283 1156 l 236 1226 l 456 1375 z "},"Ê":{"ha":646,"x_min":104,"x_max":597,"o":"m 104 929 q 117 960 104 947 q 147 972 129 972 l 597 972 l 597 886 l 190 886 l 190 572 l 461 572 l 461 486 l 190 486 l 190 86 l 597 86 l 597 0 l 147 0 q 117 13 129 0 q 104 43 104 25 l 104 929 m 539 1225 l 493 1156 l 363 1243 l 232 1156 l 186 1225 l 363 1343 l 539 1225 z "},"Ë":{"ha":646,"x_min":104,"x_max":597,"o":"m 104 929 q 117 960 104 947 q 147 972 129 972 l 597 972 l 597 886 l 190 886 l 190 572 l 461 572 l 461 486 l 190 486 l 190 86 l 597 86 l 597 0 l 147 0 q 117 13 129 0 q 104 43 104 25 l 104 929 m 472 1279 q 515 1261 497 1279 q 533 1218 533 1243 q 515 1174 533 1192 q 472 1156 497 1156 q 428 1174 446 1156 q 410 1218 410 1192 q 428 1261 410 1243 q 472 1279 446 1279 m 258 1279 q 303 1261 285 1279 q 321 1218 321 1243 q 303 1174 321 1192 q 258 1156 285 1156 q 215 1174 233 1156 q 197 1218 197 1192 q 215 1261 197 1243 q 258 1279 233 1279 z "},"Ì":{"ha":389,"x_min":65,"x_max":333,"o":"m 313 972 l 313 886 l 238 886 l 238 86 l 313 86 l 313 0 l 76 0 l 76 86 l 151 86 l 151 886 l 76 886 l 76 972 l 313 972 m 285 1156 l 65 1303 l 113 1375 l 333 1226 l 285 1156 z "},"Í":{"ha":389,"x_min":65,"x_max":333,"o":"m 313 972 l 313 886 l 238 886 l 238 86 l 313 86 l 313 0 l 76 0 l 76 86 l 151 86 l 151 886 l 76 886 l 76 972 l 313 972 m 285 1375 l 333 1303 l 113 1156 l 65 1226 l 285 1375 z "},"Î":{"ha":389,"x_min":14,"x_max":368,"o":"m 313 972 l 313 886 l 238 886 l 238 86 l 313 86 l 313 0 l 76 0 l 76 86 l 151 86 l 151 886 l 76 886 l 76 972 l 313 972 m 368 1225 l 322 1156 l 192 1243 l 61 1156 l 14 1225 l 192 1343 l 368 1225 z "},"Ï":{"ha":389,"x_min":26,"x_max":363,"o":"m 313 972 l 313 886 l 238 886 l 238 86 l 313 86 l 313 0 l 76 0 l 76 86 l 151 86 l 151 886 l 76 886 l 76 972 l 313 972 m 301 1279 q 345 1261 328 1279 q 363 1218 363 1243 q 345 1174 363 1192 q 301 1156 328 1156 q 258 1174 275 1156 q 240 1218 240 1192 q 258 1261 240 1243 q 301 1279 275 1279 m 88 1279 q 132 1261 114 1279 q 150 1218 150 1243 q 132 1174 150 1192 q 88 1156 114 1156 q 44 1174 63 1156 q 26 1218 26 1192 q 44 1261 26 1243 q 88 1279 63 1279 z "},"Ł":{"ha":689,"x_min":49,"x_max":682,"o":"m 233 0 q 210 10 219 0 q 200 33 200 19 l 200 424 l 49 511 l 90 583 l 200 521 l 200 972 l 283 972 l 283 472 l 432 386 l 390 314 l 283 376 l 283 83 l 682 83 l 682 0 l 233 0 z "},"Ñ":{"ha":844,"x_min":104,"x_max":740,"o":"m 654 86 l 654 972 l 740 972 l 740 43 q 728 13 740 25 q 697 0 715 0 l 589 0 q 547 31 557 0 l 222 886 l 190 886 l 190 0 l 104 0 l 104 929 q 117 960 104 947 q 147 972 129 972 l 256 972 q 296 942 286 972 l 621 86 l 654 86 m 510 1272 q 468 1240 494 1240 q 447 1249 457 1240 q 424 1269 436 1258 q 394 1288 411 1279 q 350 1296 376 1296 q 283 1275 314 1296 q 235 1218 253 1254 l 308 1181 q 350 1213 326 1213 q 372 1204 363 1213 q 394 1185 382 1196 q 424 1166 407 1175 q 468 1157 442 1157 q 535 1178 504 1157 q 585 1235 565 1199 l 510 1272 z "},"Ò":{"ha":778,"x_min":76,"x_max":701,"o":"m 479 1156 l 258 1303 l 306 1375 l 526 1226 l 479 1156 m 600 242 q 612 372 608 313 q 615 487 615 431 q 612 602 615 543 q 600 732 608 661 q 562 827 594 789 q 485 884 529 865 q 389 903 440 903 q 293 884 338 903 q 217 827 249 865 q 178 732 185 789 q 166 602 169 661 q 163 487 163 543 q 166 372 163 431 q 178 242 169 313 q 217 147 185 185 q 293 89 249 108 q 389 69 338 69 q 485 89 440 69 q 562 147 529 108 q 600 242 594 185 m 685 740 q 697 606 693 667 q 701 486 701 544 q 697 367 701 428 q 685 232 693 306 q 631 94 676 149 q 523 11 586 39 q 388 -16 460 -17 q 254 13 317 -15 q 147 95 192 40 q 93 232 101 150 q 81 367 85 306 q 76 486 76 428 q 81 606 76 544 q 93 740 85 667 q 147 879 103 824 q 255 962 192 935 q 390 989 318 989 q 524 961 461 989 q 631 878 586 933 q 685 740 676 822 z "},"Ó":{"ha":778,"x_min":76,"x_max":701,"o":"m 479 1375 l 526 1303 l 306 1156 l 258 1226 l 479 1375 m 600 242 q 612 372 608 313 q 615 487 615 431 q 612 602 615 543 q 600 732 608 661 q 562 827 594 789 q 485 884 529 865 q 389 903 440 903 q 293 884 338 903 q 217 827 249 865 q 178 732 185 789 q 166 602 169 661 q 163 487 163 543 q 166 372 163 431 q 178 242 169 313 q 217 147 185 185 q 293 89 249 108 q 389 69 338 69 q 485 89 440 69 q 562 147 529 108 q 600 242 594 185 m 685 740 q 697 606 693 667 q 701 486 701 544 q 697 367 701 428 q 685 232 693 306 q 631 94 676 149 q 523 11 586 39 q 388 -16 460 -17 q 254 13 317 -15 q 147 95 192 40 q 93 232 101 150 q 81 367 85 306 q 76 486 76 428 q 81 606 76 544 q 93 740 85 667 q 147 879 103 824 q 255 962 192 935 q 390 989 318 989 q 524 961 461 989 q 631 878 586 933 q 685 740 676 822 z "},"Ô":{"ha":778,"x_min":76,"x_max":701,"o":"m 567 1225 l 521 1156 l 389 1243 l 258 1156 l 213 1225 l 389 1343 l 567 1225 m 600 242 q 612 372 608 313 q 615 487 615 431 q 612 602 615 543 q 600 732 608 661 q 562 827 594 789 q 485 884 529 865 q 389 903 440 903 q 293 884 338 903 q 217 827 249 865 q 178 732 185 789 q 166 602 169 661 q 163 487 163 543 q 166 372 163 431 q 178 242 169 313 q 217 147 185 185 q 293 89 249 108 q 389 69 338 69 q 485 89 440 69 q 562 147 529 108 q 600 242 594 185 m 685 740 q 697 606 693 667 q 701 486 701 544 q 697 367 701 428 q 685 232 693 306 q 631 94 676 149 q 523 11 586 39 q 388 -16 460 -17 q 254 13 317 -15 q 147 95 192 40 q 93 232 101 150 q 81 367 85 306 q 76 486 76 428 q 81 606 76 544 q 93 740 85 667 q 147 879 103 824 q 255 962 192 935 q 390 989 318 989 q 524 961 461 989 q 631 878 586 933 q 685 740 676 822 z "},"Ö":{"ha":778,"x_min":76,"x_max":701,"o":"m 600 242 q 612 372 608 313 q 615 487 615 431 q 612 602 615 543 q 600 732 608 661 q 562 827 594 789 q 485 884 529 865 q 389 903 440 903 q 293 884 338 903 q 217 827 249 865 q 178 732 185 789 q 166 602 169 661 q 163 487 163 543 q 166 372 163 431 q 178 242 169 313 q 217 147 185 185 q 293 89 249 108 q 389 69 338 69 q 485 89 440 69 q 562 147 529 108 q 600 242 594 185 m 685 740 q 697 606 693 667 q 701 486 701 544 q 697 367 701 428 q 685 232 693 306 q 631 94 676 149 q 523 11 586 39 q 388 -16 460 -17 q 254 13 317 -15 q 147 95 192 40 q 93 232 101 150 q 81 367 85 306 q 76 486 76 428 q 81 606 76 544 q 93 740 85 667 q 147 879 103 824 q 255 962 192 935 q 390 989 318 989 q 524 961 461 989 q 631 878 586 933 q 685 740 676 822 m 499 1279 q 542 1261 525 1279 q 560 1218 560 1243 q 542 1174 560 1192 q 499 1156 525 1156 q 455 1174 472 1156 q 438 1218 438 1192 q 455 1261 438 1243 q 499 1279 472 1279 m 286 1279 q 329 1261 311 1279 q 347 1218 347 1243 q 329 1174 347 1192 q 286 1156 311 1156 q 242 1174 260 1156 q 224 1218 224 1192 q 242 1261 224 1243 q 286 1279 260 1279 z "},"Õ":{"ha":778,"x_min":76,"x_max":701,"o":"m 490 1272 q 449 1240 475 1240 q 427 1249 438 1240 q 404 1269 417 1258 q 374 1288 392 1279 q 331 1296 357 1296 q 264 1275 294 1296 q 215 1218 233 1254 l 289 1181 q 331 1213 307 1213 q 353 1204 343 1213 q 375 1185 363 1196 q 405 1166 388 1175 q 449 1157 422 1157 q 515 1178 485 1157 q 565 1235 546 1199 l 490 1272 m 600 242 q 612 372 608 313 q 615 487 615 431 q 612 602 615 543 q 600 732 608 661 q 562 827 594 789 q 485 884 529 865 q 389 903 440 903 q 293 884 338 903 q 217 827 249 865 q 178 732 185 789 q 166 602 169 661 q 163 487 163 543 q 166 372 163 431 q 178 242 169 313 q 217 147 185 185 q 293 89 249 108 q 389 69 338 69 q 485 89 440 69 q 562 147 529 108 q 600 242 594 185 m 685 740 q 697 606 693 667 q 701 486 701 544 q 697 367 701 428 q 685 232 693 306 q 631 94 676 149 q 523 11 586 39 q 388 -16 460 -17 q 254 13 317 -15 q 147 95 192 40 q 93 232 101 150 q 81 367 85 306 q 76 486 76 428 q 81 606 76 544 q 93 740 85 667 q 147 879 103 824 q 255 962 192 935 q 390 989 318 989 q 524 961 461 989 q 631 878 586 933 q 685 740 676 822 z "},"Ø":{"ha":796,"x_min":69,"x_max":725,"o":"m 188 243 q 190 226 189 235 q 194 210 192 218 l 550 846 q 449 895 508 885 q 335 890 390 906 q 237 834 279 875 q 188 729 194 793 q 177 600 181 658 q 174 486 174 542 q 177 372 174 431 q 188 243 181 314 m 607 729 q 604 746 606 738 q 600 763 603 754 l 246 126 q 347 77 288 88 q 461 82 406 67 q 558 138 517 97 q 607 243 600 179 q 619 372 615 314 q 622 486 622 431 q 619 600 622 542 q 607 729 615 658 m 143 -56 l 69 -15 l 144 118 q 118 174 129 144 q 104 235 107 203 q 92 368 96 308 q 89 486 89 428 q 92 605 89 544 q 104 738 96 665 q 138 840 111 794 q 203 917 164 886 q 293 967 243 949 q 395 985 343 985 q 498 971 447 986 q 592 921 549 956 l 651 1028 l 725 988 l 651 853 q 690 738 685 800 q 703 605 699 665 q 707 486 707 544 q 703 368 707 428 q 690 235 699 308 q 658 132 685 178 q 592 54 632 86 q 501 5 551 22 q 399 -14 451 -12 q 297 1 347 -15 q 203 51 246 17 l 143 -56 z "},"Œ":{"ha":1001,"x_min":57,"x_max":1014,"o":"m 151 735 q 141 607 144 668 q 138 486 138 546 q 141 365 138 426 q 151 238 144 304 q 203 129 158 174 q 313 81 249 85 q 515 106 415 74 l 515 867 q 313 892 415 899 q 203 843 249 888 q 151 735 158 799 m 307 1 q 221 23 261 4 q 149 72 181 42 q 98 142 118 103 q 72 228 78 182 q 60 360 64 297 q 57 486 57 424 q 60 612 57 549 q 72 744 64 675 q 98 831 78 790 q 149 901 118 871 q 221 949 181 931 q 307 971 261 968 q 526 946 418 979 q 554 958 538 958 l 1014 958 l 1014 879 l 594 879 l 594 575 l 888 575 l 888 496 l 594 496 l 594 93 l 1014 93 l 1014 14 l 554 14 q 526 26 538 14 q 418 4 474 11 q 307 1 363 -3 z "},"Š":{"ha":664,"x_min":31,"x_max":633,"o":"m 497 450 q 546 417 521 436 q 591 372 571 399 q 622 308 611 344 q 628 225 633 272 q 601 137 622 178 q 549 64 581 96 q 474 13 517 32 q 385 -11 432 -7 q 85 33 231 -24 l 117 113 q 245 78 179 88 q 378 74 311 68 q 438 90 410 76 q 489 124 467 103 q 525 174 511 146 q 543 235 539 203 q 528 313 549 281 q 456 375 508 344 q 311 449 383 411 q 167 522 239 486 q 118 556 143 536 q 73 602 93 575 q 42 665 53 629 q 36 749 31 701 q 63 838 42 796 q 115 910 83 879 q 190 960 147 942 q 279 983 232 979 q 578 939 432 996 l 547 860 q 286 899 421 910 q 226 883 254 896 q 175 847 197 869 q 139 797 153 825 q 121 738 125 769 q 135 660 115 692 q 208 596 156 628 q 353 523 281 560 q 497 450 425 486 m 156 1275 l 201 1343 l 332 1256 l 463 1343 l 508 1275 l 332 1156 l 156 1275 z "},"Ù":{"ha":792,"x_min":90,"x_max":701,"o":"m 618 972 l 701 972 l 701 489 q 701 419 701 451 q 698 356 700 388 q 693 294 696 325 q 686 228 690 263 q 633 93 678 147 q 527 12 589 39 q 395 -15 465 -15 q 263 12 325 -15 q 158 93 201 39 q 106 228 114 147 q 99 294 101 263 q 94 356 96 325 q 91 419 92 388 q 90 489 90 451 l 90 972 l 174 972 l 174 489 q 178 362 174 418 q 189 238 182 306 q 226 144 194 182 q 301 87 257 106 q 395 68 344 68 q 490 87 446 68 q 565 143 533 106 q 603 238 597 181 q 614 362 610 306 q 618 489 618 418 l 618 972 m 485 1156 l 264 1303 l 311 1375 l 532 1226 l 485 1156 z "},"Ú":{"ha":792,"x_min":90,"x_max":701,"o":"m 618 972 l 701 972 l 701 489 q 701 419 701 451 q 698 356 700 388 q 693 294 696 325 q 686 228 690 263 q 633 93 678 147 q 527 12 589 39 q 395 -15 465 -15 q 263 12 325 -15 q 158 93 201 39 q 106 228 114 147 q 99 294 101 263 q 94 356 96 325 q 91 419 92 388 q 90 489 90 451 l 90 972 l 174 972 l 174 489 q 178 362 174 418 q 189 238 182 306 q 226 144 194 182 q 301 87 257 106 q 395 68 344 68 q 490 87 446 68 q 565 143 533 106 q 603 238 597 181 q 614 362 610 306 q 618 489 618 418 l 618 972 m 485 1375 l 532 1303 l 311 1156 l 264 1226 l 485 1375 z "},"Ü":{"ha":792,"x_min":90,"x_max":701,"o":"m 618 972 l 701 972 l 701 489 q 701 419 701 451 q 698 356 700 388 q 693 294 696 325 q 686 228 690 263 q 633 93 678 147 q 527 12 589 39 q 395 -15 465 -15 q 263 12 325 -15 q 158 93 201 39 q 106 228 114 147 q 99 294 101 263 q 94 356 96 325 q 91 419 92 388 q 90 489 90 451 l 90 972 l 174 972 l 174 489 q 178 362 174 418 q 189 238 182 306 q 226 144 194 182 q 301 87 257 106 q 395 68 344 68 q 490 87 446 68 q 565 143 533 106 q 603 238 597 181 q 614 362 610 306 q 618 489 618 418 l 618 972 m 499 1279 q 542 1261 525 1279 q 560 1218 560 1243 q 542 1174 560 1192 q 499 1156 525 1156 q 455 1174 472 1156 q 438 1218 438 1192 q 455 1261 438 1243 q 499 1279 472 1279 m 286 1279 q 329 1261 311 1279 q 347 1218 347 1243 q 329 1174 347 1192 q 286 1156 311 1156 q 242 1174 260 1156 q 224 1218 224 1192 q 242 1261 224 1243 q 286 1279 260 1279 z "},"Û":{"ha":792,"x_min":90,"x_max":701,"o":"m 618 972 l 701 972 l 701 489 q 701 419 701 451 q 698 356 700 388 q 693 294 696 325 q 686 228 690 263 q 633 93 678 147 q 527 12 589 39 q 395 -15 465 -15 q 263 12 325 -15 q 158 93 201 39 q 106 228 114 147 q 99 294 101 263 q 94 356 96 325 q 91 419 92 388 q 90 489 90 451 l 90 972 l 174 972 l 174 489 q 178 362 174 418 q 189 238 182 306 q 226 144 194 182 q 301 87 257 106 q 395 68 344 68 q 490 87 446 68 q 565 143 533 106 q 603 238 597 181 q 614 362 610 306 q 618 489 618 418 l 618 972 m 572 1224 l 525 1154 l 394 1243 l 264 1154 l 218 1224 l 394 1342 l 572 1224 z "},"Ý":{"ha":639,"x_min":35,"x_max":604,"o":"m 256 436 q 215 464 226 436 l 35 972 l 125 972 l 286 522 l 350 522 l 513 972 l 604 972 l 422 469 q 403 445 415 454 q 375 436 390 436 l 363 436 l 363 0 l 276 0 l 276 436 l 256 436 m 385 1375 l 433 1303 l 213 1156 l 165 1226 l 385 1375 z "},"Ÿ":{"ha":639,"x_min":35,"x_max":604,"o":"m 256 436 q 215 464 226 436 l 35 972 l 125 972 l 286 522 l 350 522 l 513 972 l 604 972 l 422 469 q 403 445 415 454 q 375 436 390 436 l 363 436 l 363 0 l 276 0 l 276 436 l 256 436 m 422 1279 q 466 1261 449 1279 q 483 1218 483 1243 q 466 1174 483 1192 q 422 1156 449 1156 q 378 1174 396 1156 q 361 1218 361 1192 q 378 1261 361 1243 q 422 1279 396 1279 m 210 1279 q 253 1261 235 1279 q 271 1218 271 1243 q 253 1174 271 1192 q 210 1156 235 1156 q 165 1174 183 1156 q 147 1218 147 1192 q 165 1261 147 1243 q 210 1279 183 1279 z "},"Ž":{"ha":632,"x_min":49,"x_max":585,"o":"m 542 972 q 572 960 560 972 q 583 929 583 947 l 583 849 q 578 825 583 835 l 135 113 l 135 86 l 585 86 l 585 0 l 92 0 q 61 13 74 0 q 49 43 49 25 l 49 124 q 56 147 49 136 l 499 860 l 499 886 l 49 886 l 49 972 l 542 972 m 139 1275 l 185 1343 l 317 1256 l 447 1343 l 493 1275 l 317 1156 l 139 1275 z "},"=":{"ha":674,"x_min":104,"x_max":569,"o":"m 104 651 l 569 651 l 569 568 l 104 568 l 104 651 m 569 404 l 569 321 l 104 321 l 104 404 l 569 404 z "},"á":{"ha":676,"x_min":94,"x_max":608,"o":"m 94 211 l 94 215 q 110 301 94 261 q 154 370 126 340 q 221 419 182 400 q 306 439 260 438 q 343 440 329 440 q 381 439 357 440 q 441 431 401 439 q 519 406 481 422 q 472 501 513 463 q 374 543 432 540 q 157 518 261 547 l 133 599 q 376 625 250 632 q 460 607 421 624 q 528 563 499 590 q 578 497 558 535 q 601 417 597 460 q 607 353 606 385 q 608 289 608 321 l 608 0 l 526 0 l 526 39 q 442 -4 485 7 q 347 -15 399 -15 q 297 -13 321 -15 q 256 -6 274 -11 q 138 73 181 14 q 94 211 94 132 m 178 215 l 178 211 q 213 113 178 153 q 308 69 249 72 l 386 69 q 441 83 415 71 q 485 114 467 94 q 515 158 504 133 q 526 213 526 183 l 526 306 q 503 323 521 314 q 463 340 485 332 q 418 352 440 347 q 379 357 396 357 q 344 357 357 357 q 310 356 331 357 q 215 313 251 353 q 178 215 178 272 m 413 1018 l 461 947 l 240 800 l 193 871 l 413 1018 z "},"é":{"ha":675,"x_min":69,"x_max":606,"o":"m 76 410 q 106 506 82 465 q 167 575 131 547 q 247 617 203 603 q 338 631 292 631 q 428 617 383 631 q 508 576 472 603 q 569 508 544 549 q 599 413 593 467 q 602 377 601 396 q 604 343 603 358 q 606 317 606 328 q 606 306 606 307 q 594 275 606 288 q 564 263 582 263 l 153 263 q 156 236 154 249 q 158 208 157 224 q 176 155 161 179 q 213 112 190 131 q 263 82 235 93 q 319 69 290 71 q 433 73 374 67 q 546 93 493 79 l 568 14 q 460 -7 519 0 q 349 -14 400 -14 q 253 -1 300 -14 q 169 40 207 13 q 107 107 132 67 q 76 200 82 147 q 72 243 74 222 q 69 288 69 264 q 71 341 69 311 q 76 410 72 371 m 521 346 q 519 374 519 360 q 517 403 518 389 q 497 466 513 439 q 456 510 481 493 q 401 537 431 528 q 339 546 371 546 q 276 537 307 546 q 219 510 244 528 q 178 465 194 492 q 158 401 163 438 q 155 372 156 386 q 153 346 154 358 l 521 346 m 403 1018 l 450 946 l 231 799 l 182 869 l 403 1018 z "},"í":{"ha":404,"x_min":68,"x_max":336,"o":"m 288 1018 l 336 947 l 115 799 l 68 869 l 288 1018 m 165 615 l 261 615 l 261 0 l 165 0 l 165 615 z "},"ó":{"ha":676,"x_min":65,"x_max":611,"o":"m 74 400 q 103 499 79 457 q 164 570 128 542 q 246 613 200 599 q 339 626 292 626 q 431 613 386 626 q 513 570 476 599 q 574 499 550 542 q 603 400 599 457 q 603 215 611 308 q 574 117 599 160 q 513 46 550 74 q 431 3 476 18 q 339 -11 386 -11 q 246 3 292 -11 q 164 46 200 18 q 103 117 128 74 q 74 215 79 160 q 74 400 65 308 m 156 224 q 175 156 158 185 q 217 109 192 128 q 273 81 242 90 q 338 71 304 71 q 401 81 369 71 q 458 109 432 90 q 500 157 483 128 q 521 224 517 186 q 521 392 528 308 q 501 459 518 431 q 460 506 485 488 q 403 535 435 525 q 339 544 372 544 q 276 535 307 544 q 219 506 244 525 q 176 458 193 488 q 156 392 160 429 q 156 224 149 308 m 193 872 l 413 1019 l 460 949 l 240 801 l 193 872 z "},"ú":{"ha":703,"x_min":90,"x_max":599,"o":"m 406 1018 l 454 946 l 233 799 l 186 869 l 406 1018 m 90 615 l 174 615 l 174 332 q 175 274 174 303 q 179 218 176 246 q 230 115 186 157 q 333 69 274 72 q 515 88 428 67 l 515 615 l 599 615 l 599 54 q 568 14 599 24 q 361 -14 464 -14 l 331 -14 q 244 6 285 -12 q 173 54 204 24 q 121 124 142 85 q 96 210 100 164 q 92 270 93 240 q 90 332 90 300 l 90 615 z "},"ý":{"ha":689,"x_min":69,"x_max":619,"o":"m 418 1018 l 465 947 l 246 799 l 197 871 l 418 1018 m 342 0 l 290 0 q 265 8 275 0 q 250 29 254 17 l 69 615 l 157 615 l 321 83 l 368 83 l 532 615 l 619 615 l 322 -347 l 235 -347 l 342 0 z "},"â":{"ha":676,"x_min":94,"x_max":608,"o":"m 539 867 l 493 799 l 363 886 l 232 799 l 186 867 l 363 986 l 539 867 m 386 69 q 441 83 415 71 q 485 114 467 94 q 515 158 504 133 q 526 213 526 183 q 526 259 526 236 q 525 306 526 282 q 502 323 519 314 q 463 340 485 332 q 418 352 440 347 q 379 357 396 357 q 344 357 357 357 q 310 356 331 357 q 215 313 251 353 q 178 214 178 272 l 178 211 q 213 113 178 153 q 308 69 249 72 l 386 69 m 608 0 l 526 0 l 526 39 q 438 -6 485 7 q 397 -12 421 -10 q 347 -14 372 -14 q 297 -12 321 -14 q 256 -6 272 -10 q 138 73 181 14 q 94 211 94 132 l 94 215 q 110 300 94 260 q 154 370 126 340 q 221 419 182 400 q 306 439 260 438 q 343 440 329 440 q 381 439 357 440 q 441 431 401 439 q 519 406 481 422 q 472 501 513 463 q 374 543 432 540 q 156 518 261 547 l 133 599 q 376 625 250 632 q 460 607 421 624 q 528 563 499 590 q 578 497 558 535 q 601 417 597 460 q 607 353 606 385 q 608 289 608 321 l 608 0 z "},"š":{"ha":540,"x_min":47,"x_max":493,"o":"m 447 867 l 401 799 l 269 886 l 139 799 l 93 867 l 269 986 l 447 867 m 375 89 q 401 114 392 99 q 410 149 411 129 q 399 183 410 168 q 371 208 389 199 l 133 331 q 72 385 94 350 q 49 463 50 421 q 68 539 47 504 q 126 594 89 574 q 178 617 150 610 q 235 625 207 624 q 474 600 357 631 l 453 521 q 347 540 400 535 q 239 543 293 546 q 167 524 199 543 q 131 464 131 504 q 141 429 131 444 q 169 404 151 414 l 408 282 q 472 226 451 260 q 492 150 492 192 q 472 73 493 108 q 414 17 451 38 q 306 -12 367 -10 q 67 13 183 -19 l 88 92 q 194 72 140 78 q 303 69 247 67 q 375 89 340 69 z "},"î":{"ha":413,"x_min":29,"x_max":383,"o":"m 383 867 l 338 799 l 206 886 l 75 799 l 29 867 l 206 986 l 383 867 m 157 615 l 251 615 l 251 0 l 157 0 l 157 615 z "},"û":{"ha":703,"x_min":90,"x_max":599,"o":"m 515 867 l 469 799 l 339 886 l 208 799 l 163 867 l 339 986 l 515 867 m 90 615 l 174 615 l 174 332 q 175 274 174 303 q 179 218 176 246 q 230 115 186 157 q 333 69 274 72 q 515 88 428 67 l 515 615 l 599 615 l 599 54 q 568 14 599 24 q 361 -14 464 -14 l 331 -14 q 244 6 285 -12 q 173 54 204 24 q 121 124 142 85 q 96 210 100 164 q 92 270 93 240 q 90 332 90 300 l 90 615 z "},"ž":{"ha":493,"x_min":69,"x_max":424,"o":"m 424 867 l 378 799 l 246 886 l 115 799 l 69 867 l 246 986 l 424 867 m 418 533 q 413 513 418 526 l 163 83 l 418 83 l 418 0 l 113 0 q 84 12 96 0 q 72 40 72 24 l 72 82 q 78 103 72 93 l 325 532 l 72 532 l 72 615 l 378 615 q 406 603 394 615 q 418 575 418 592 l 418 533 z "},"ã":{"ha":676,"x_min":94,"x_max":608,"o":"m 461 914 q 419 882 446 882 q 398 890 408 882 q 375 909 388 899 q 345 928 363 919 q 301 936 328 936 q 235 915 265 936 q 186 858 204 894 l 260 822 q 301 853 278 853 q 324 844 314 853 q 346 826 333 836 q 376 807 358 815 q 419 799 393 799 q 486 819 456 799 q 536 876 517 840 l 461 914 m 386 69 q 441 83 415 71 q 485 114 467 94 q 515 158 504 133 q 526 213 526 183 q 526 259 526 236 q 525 306 526 282 q 502 323 519 314 q 463 340 485 332 q 418 352 440 347 q 379 357 396 357 q 344 357 357 357 q 310 356 331 357 q 215 313 251 353 q 178 214 178 272 l 178 211 q 213 113 178 153 q 308 69 249 72 l 386 69 m 608 0 l 526 0 l 526 39 q 438 -6 485 7 q 397 -12 421 -10 q 347 -14 372 -14 q 297 -12 321 -14 q 256 -6 272 -10 q 138 73 181 14 q 94 211 94 132 l 94 215 q 110 300 94 260 q 154 370 126 340 q 221 419 182 400 q 306 439 260 438 q 343 440 329 440 q 381 439 357 440 q 441 431 401 439 q 519 406 481 422 q 472 501 513 463 q 374 543 432 540 q 156 518 261 547 l 133 599 q 376 625 250 632 q 460 607 421 624 q 528 563 499 590 q 578 497 558 535 q 601 417 597 460 q 607 353 606 385 q 608 289 608 321 l 608 0 z "},"õ":{"ha":676,"x_min":65,"x_max":611,"o":"m 436 913 q 394 881 421 881 q 373 890 383 881 q 350 909 363 899 q 320 928 338 919 q 276 936 303 936 q 210 915 240 936 q 161 858 179 894 l 235 821 q 276 853 253 853 q 299 844 289 853 q 321 826 308 836 q 351 806 333 815 q 394 797 368 797 q 461 818 431 797 q 511 875 492 839 l 436 913 m 156 392 q 156 222 149 308 q 174 163 158 190 q 215 114 190 135 q 270 81 239 93 q 336 69 301 69 l 340 69 q 406 81 375 69 q 462 114 438 93 q 502 163 486 135 q 521 222 518 190 q 521 392 528 308 q 502 452 518 424 q 462 501 486 481 q 406 534 438 522 q 340 546 375 546 l 336 546 q 270 534 301 546 q 215 501 239 522 q 174 452 190 481 q 156 392 158 424 m 264 -4 q 133 76 186 17 q 74 215 81 136 q 74 400 65 308 q 98 484 78 444 q 150 554 118 524 q 223 604 182 585 q 311 628 264 624 q 365 628 339 631 q 453 604 413 624 q 526 554 494 585 q 578 484 558 524 q 603 400 599 444 q 603 215 611 308 q 543 76 596 136 q 413 -4 490 17 q 377 -11 394 -8 q 340 -14 360 -14 l 340 -14 l 336 -14 q 299 -11 317 -14 q 264 -4 282 -8 z "},"ô":{"ha":676,"x_min":65,"x_max":611,"o":"m 515 867 l 469 799 l 339 886 l 208 799 l 163 867 l 339 986 l 515 867 m 156 392 q 156 222 149 308 q 188 138 160 171 q 254 88 215 104 q 338 71 293 71 q 422 88 383 71 q 489 139 461 106 q 521 222 517 172 q 521 392 528 308 q 489 477 517 443 q 422 528 461 511 q 338 544 383 544 q 254 527 293 544 q 188 476 215 510 q 156 392 160 442 m 603 215 q 556 90 596 140 q 460 14 517 39 q 338 -11 403 -11 q 217 14 274 -11 q 120 90 160 39 q 74 215 81 140 q 74 400 65 308 q 120 526 81 475 q 217 601 160 576 q 338 626 274 626 q 460 601 403 626 q 556 526 517 576 q 603 400 596 476 q 603 215 611 308 z "},"ä":{"ha":676,"x_min":94,"x_max":608,"o":"m 94 215 q 110 301 94 261 q 154 370 126 340 q 221 419 182 400 q 306 439 260 438 q 343 440 329 440 q 381 439 357 440 q 441 431 401 439 q 519 406 481 422 q 472 501 513 463 q 374 543 432 540 q 157 518 261 547 l 133 599 q 376 625 250 632 q 460 607 421 624 q 528 563 499 590 q 578 497 558 535 q 601 417 597 460 q 607 353 606 385 q 608 289 608 321 l 608 0 l 526 0 l 526 39 q 442 -4 485 7 q 347 -15 399 -15 q 297 -13 321 -15 q 256 -6 274 -11 q 138 73 181 14 q 94 211 94 132 l 94 215 m 178 211 q 213 113 178 153 q 308 69 249 72 l 386 69 q 441 83 415 71 q 485 114 467 94 q 515 158 504 133 q 526 213 526 183 l 526 306 q 503 323 521 314 q 463 340 485 332 q 418 352 440 347 q 379 357 396 357 q 344 357 357 357 q 310 356 331 357 q 215 313 251 353 q 178 215 178 272 l 178 211 m 244 921 q 289 903 271 921 q 307 860 307 885 q 289 815 307 833 q 244 797 271 797 q 201 815 219 797 q 183 860 183 833 q 201 903 183 885 q 244 921 219 921 m 396 860 q 414 903 396 885 q 458 921 432 921 q 501 903 483 921 q 519 860 519 885 q 501 815 519 833 q 458 797 483 797 q 414 815 432 797 q 396 860 396 833 z "},"ö":{"ha":676,"x_min":65,"x_max":611,"o":"m 74 400 q 103 499 79 457 q 164 570 128 542 q 246 613 200 599 q 339 626 292 626 q 431 613 386 626 q 513 570 476 599 q 574 499 550 542 q 603 400 599 457 q 603 215 611 308 q 574 117 599 160 q 513 46 550 74 q 431 3 476 18 q 339 -11 386 -11 q 246 3 292 -11 q 164 46 200 18 q 103 117 128 74 q 74 215 79 160 q 74 400 65 308 m 156 224 q 175 156 158 185 q 217 109 192 128 q 273 81 242 90 q 338 71 304 71 q 401 81 369 71 q 458 109 432 90 q 500 157 483 128 q 521 224 517 186 q 521 392 528 308 q 501 459 518 431 q 460 506 485 488 q 403 535 435 525 q 339 544 372 544 q 276 535 307 544 q 219 506 244 525 q 176 458 193 488 q 156 392 160 429 q 156 224 149 308 m 381 860 q 399 904 381 886 q 443 922 417 922 q 486 904 468 922 q 504 860 504 886 q 486 817 504 835 q 443 799 468 799 q 399 817 417 799 q 381 860 381 835 m 168 860 q 186 904 168 886 q 229 922 204 922 q 274 904 256 922 q 292 860 292 886 q 274 817 292 835 q 229 799 256 799 q 186 817 204 799 q 168 860 168 835 z "},"ï":{"ha":414,"x_min":39,"x_max":375,"o":"m 250 615 l 250 0 l 154 0 l 154 615 l 250 615 m 100 922 q 144 904 126 922 q 163 860 163 886 q 144 817 163 835 q 100 799 126 799 q 57 817 75 799 q 39 860 39 835 q 57 904 39 886 q 100 922 75 922 m 314 922 q 358 904 340 922 q 375 860 375 886 q 358 817 375 835 q 314 799 340 799 q 270 817 288 799 q 253 860 253 835 q 270 904 253 886 q 314 922 288 922 z "},"ë":{"ha":675,"x_min":69,"x_max":606,"o":"m 76 410 q 106 506 82 465 q 167 575 131 547 q 247 617 203 603 q 338 631 292 631 q 428 617 383 631 q 508 576 472 603 q 569 508 544 549 q 599 413 593 467 q 602 377 601 396 q 604 343 603 358 q 606 317 606 328 q 606 306 606 307 q 594 275 606 288 q 564 263 582 263 l 153 263 q 156 236 154 249 q 158 208 157 224 q 176 155 161 179 q 213 112 190 131 q 263 82 235 93 q 319 69 290 71 q 433 73 374 67 q 546 93 493 79 l 568 14 q 460 -7 519 0 q 349 -14 400 -14 q 253 -1 300 -14 q 169 40 207 13 q 107 107 132 67 q 76 200 82 147 q 72 243 74 222 q 69 288 69 264 q 71 341 69 311 q 76 410 72 371 m 153 346 l 521 346 q 519 374 519 360 q 517 403 518 389 q 497 466 513 439 q 456 510 481 493 q 401 537 431 528 q 339 546 371 546 q 276 537 307 546 q 219 510 244 528 q 178 465 194 492 q 158 401 163 438 q 155 372 156 386 q 153 346 154 358 m 235 921 q 279 903 261 921 q 297 860 297 885 q 279 815 297 833 q 235 797 261 797 q 192 815 210 797 q 174 860 174 833 q 192 903 174 885 q 235 921 210 921 m 386 860 q 404 903 386 885 q 449 921 422 921 q 492 903 474 921 q 510 860 510 885 q 492 815 510 833 q 449 797 474 797 q 404 815 422 797 q 386 860 386 833 z "},"ü":{"ha":703,"x_min":90,"x_max":599,"o":"m 90 332 l 90 615 l 174 615 l 174 332 q 175 274 174 303 q 179 218 176 246 q 230 115 186 157 q 333 69 274 72 q 515 88 428 67 l 515 615 l 599 615 l 599 54 q 568 14 599 24 q 451 -8 508 -1 q 331 -14 393 -14 q 244 6 285 -12 q 173 54 204 24 q 121 124 142 85 q 96 210 100 164 q 92 270 93 240 q 90 332 90 300 m 457 919 q 500 901 482 919 q 518 857 518 883 q 500 814 518 832 q 457 796 482 796 q 413 814 431 796 q 394 857 394 832 q 413 901 394 883 q 457 919 431 919 m 182 857 q 200 901 182 883 q 243 919 218 919 q 288 901 269 919 q 306 857 306 883 q 288 814 306 832 q 243 796 269 796 q 200 814 218 796 q 182 857 182 832 z "},"ÿ":{"ha":689,"x_min":69,"x_max":619,"o":"m 69 615 l 157 615 l 321 85 l 368 85 l 532 615 l 619 615 l 322 -347 l 235 -347 l 342 0 l 290 0 q 265 8 275 0 q 250 29 254 17 l 69 615 m 450 922 q 493 904 475 922 q 511 860 511 886 q 493 817 511 835 q 450 799 475 799 q 406 817 424 799 q 388 860 388 835 q 406 904 388 886 q 450 922 424 922 m 236 922 q 281 904 263 922 q 299 860 299 886 q 281 817 299 835 q 236 799 263 799 q 193 817 211 799 q 175 860 175 835 q 193 904 175 886 q 236 922 211 922 z "},"à":{"ha":676,"x_min":94,"x_max":608,"o":"m 94 211 l 94 215 q 110 301 94 261 q 154 370 126 340 q 221 419 182 400 q 306 439 260 438 q 343 440 329 440 q 381 439 357 440 q 441 431 401 439 q 519 406 481 422 q 472 501 513 463 q 374 543 432 540 q 157 518 261 547 l 133 599 q 376 625 250 632 q 460 607 421 624 q 528 563 499 590 q 578 497 558 535 q 601 417 597 460 q 607 353 606 385 q 608 289 608 321 l 608 0 l 526 0 l 526 39 q 442 -4 485 7 q 347 -15 399 -15 q 297 -13 321 -15 q 256 -6 274 -11 q 138 73 181 14 q 94 211 94 132 m 178 215 l 178 211 q 213 113 178 153 q 308 69 249 72 l 386 69 q 441 83 415 71 q 485 114 467 94 q 515 158 504 133 q 526 213 526 183 l 526 306 q 503 323 521 314 q 463 340 485 332 q 418 352 440 347 q 379 357 396 357 q 344 357 357 357 q 310 356 331 357 q 215 313 251 353 q 178 215 178 272 m 240 1018 l 461 871 l 413 800 l 193 947 l 240 1018 z "},"ì":{"ha":407,"x_min":69,"x_max":338,"o":"m 289 799 l 69 947 l 117 1018 l 338 869 l 289 799 m 139 615 l 235 615 l 235 0 l 139 0 l 139 615 z "},"è":{"ha":675,"x_min":69,"x_max":606,"o":"m 76 410 q 106 506 82 465 q 167 575 131 547 q 247 617 203 603 q 338 631 292 631 q 428 617 383 631 q 508 576 472 603 q 569 508 544 549 q 599 413 593 467 q 602 377 601 396 q 604 343 603 358 q 606 317 606 328 q 606 306 606 307 q 594 275 606 288 q 564 263 582 263 l 153 263 q 156 236 154 249 q 158 208 157 224 q 176 155 161 179 q 213 112 190 131 q 263 82 235 93 q 319 69 290 71 q 433 73 374 67 q 546 93 493 79 l 568 14 q 460 -7 519 0 q 349 -14 400 -14 q 253 -1 300 -14 q 169 40 207 13 q 107 107 132 67 q 76 200 82 147 q 72 243 74 222 q 69 288 69 264 q 71 341 69 311 q 76 410 72 371 m 521 346 q 519 374 519 360 q 517 403 518 389 q 497 466 513 439 q 456 510 481 493 q 401 537 431 528 q 339 546 371 546 q 276 537 307 546 q 219 510 244 528 q 178 465 194 492 q 158 401 163 438 q 155 372 156 386 q 153 346 154 358 l 521 346 m 182 946 l 231 1018 l 450 869 l 403 799 l 182 946 z "},"å":{"ha":676,"x_min":94,"x_max":608,"o":"m 351 1056 q 290 1031 315 1056 q 265 969 265 1006 q 290 908 265 933 q 351 883 315 883 q 413 908 388 883 q 438 969 438 933 q 413 1031 438 1006 q 351 1056 388 1056 m 351 799 q 285 812 317 799 q 231 849 254 825 q 194 903 207 872 q 181 969 181 935 q 194 1036 181 1006 q 231 1090 207 1067 q 285 1127 254 1114 q 351 1140 317 1140 q 418 1127 388 1140 q 472 1090 449 1114 q 509 1036 496 1067 q 522 969 522 1006 q 509 903 522 935 q 472 849 496 872 q 418 812 449 825 q 351 799 388 799 m 386 69 q 441 83 415 71 q 485 114 467 94 q 515 158 504 133 q 526 213 526 183 q 526 259 526 236 q 525 306 526 282 q 502 323 519 314 q 463 340 485 332 q 418 352 440 347 q 379 357 396 357 q 344 357 357 357 q 310 356 331 357 q 215 313 251 353 q 178 214 178 272 l 178 211 q 213 113 178 153 q 308 69 249 72 l 386 69 m 608 0 l 526 0 l 526 39 q 438 -6 485 7 q 397 -12 421 -10 q 347 -14 372 -14 q 297 -12 321 -14 q 256 -6 272 -10 q 138 73 181 14 q 94 211 94 132 l 94 215 q 110 300 94 260 q 154 370 126 340 q 221 419 182 400 q 306 439 260 438 q 343 440 329 440 q 381 439 357 440 q 441 431 401 439 q 519 406 481 422 q 472 501 513 463 q 374 543 432 540 q 156 518 261 547 l 133 599 q 376 625 250 632 q 460 607 421 624 q 528 563 499 590 q 578 497 558 535 q 601 417 597 460 q 607 353 606 385 q 608 289 608 321 l 608 0 z "},"æ":{"ha":1121,"x_min":96,"x_max":1058,"o":"m 178 211 q 219 113 179 153 q 318 69 260 72 q 337 69 329 69 q 351 68 344 68 q 365 69 357 68 q 383 69 372 69 q 482 113 442 72 q 522 211 522 153 l 522 304 q 499 321 517 313 q 459 337 481 329 q 415 349 438 344 q 376 354 393 354 q 346 356 354 356 q 317 354 338 356 q 219 311 258 351 q 178 214 179 271 l 178 211 m 611 401 q 608 372 608 386 q 606 346 607 358 l 974 346 q 972 374 972 360 q 969 403 971 389 q 938 484 965 451 q 872 533 911 517 q 790 548 833 549 q 708 531 747 547 q 643 483 669 515 q 611 401 617 450 m 315 -12 q 231 7 271 -11 q 160 55 190 25 q 113 124 131 85 q 96 210 96 164 l 96 214 q 113 298 96 258 q 158 368 129 338 q 227 417 188 399 q 313 436 267 435 q 331 437 324 436 q 345 438 339 438 q 359 438 351 438 q 378 438 367 438 q 438 429 399 438 q 515 404 478 421 l 515 406 q 468 499 508 461 q 369 540 428 538 q 154 515 258 544 l 132 596 q 251 618 190 611 q 374 622 311 625 q 484 590 435 619 q 564 513 533 561 q 640 590 594 561 q 738 627 686 618 q 843 626 790 636 q 940 589 896 617 q 1015 517 985 561 q 1051 413 1046 472 q 1055 377 1054 396 q 1057 342 1056 358 q 1058 316 1058 326 q 1058 306 1058 306 q 1047 275 1058 288 q 1017 263 1035 263 l 606 263 q 608 236 607 249 q 611 208 610 224 q 629 157 615 182 q 663 113 643 132 q 708 83 683 94 q 761 69 733 71 q 974 93 869 65 l 996 14 q 951 3 974 7 q 907 -6 929 -1 q 758 -14 832 -15 q 653 16 703 -11 q 571 89 603 43 q 490 17 539 44 q 386 -12 442 -10 q 350 -14 361 -14 q 315 -12 339 -14 z "},"đ":{"ha":703,"x_min":69,"x_max":682,"o":"m 500 528 q 317 544 408 549 q 210 500 254 542 q 160 396 167 458 q 156 343 157 367 q 154 297 154 319 q 156 250 154 274 q 160 199 157 226 q 208 107 165 140 q 317 71 250 74 q 409 73 363 68 q 500 89 456 78 l 500 528 m 585 972 l 585 857 l 682 857 l 682 772 l 585 772 l 585 56 q 576 29 585 40 q 553 15 567 18 q 510 3 532 8 q 467 -4 489 -1 q 313 -14 393 -17 q 227 2 268 -12 q 154 42 186 17 q 101 106 122 68 q 75 190 79 143 q 71 247 72 221 q 69 297 69 272 q 71 348 69 322 q 75 404 72 374 q 100 490 79 450 q 152 561 121 531 q 225 610 183 592 q 313 629 267 628 q 367 630 340 631 q 422 626 394 629 q 500 614 463 622 l 500 772 l 401 772 l 401 857 l 500 857 l 500 972 l 585 972 z "},"ê":{"ha":675,"x_min":69,"x_max":606,"o":"m 76 410 q 106 506 82 465 q 167 575 131 547 q 247 617 203 603 q 338 631 292 631 q 428 617 383 631 q 508 576 472 603 q 569 508 544 549 q 599 413 593 467 q 602 377 601 396 q 604 343 603 358 q 606 317 606 328 q 606 306 606 307 q 594 275 606 288 q 564 263 582 263 l 153 263 q 156 236 154 249 q 158 208 157 224 q 176 155 161 179 q 213 112 190 131 q 263 82 235 93 q 319 69 290 71 q 433 73 374 67 q 546 93 493 79 l 568 14 q 460 -7 519 0 q 349 -14 400 -14 q 253 -1 300 -14 q 169 40 207 13 q 107 107 132 67 q 76 200 82 147 q 72 243 74 222 q 69 288 69 264 q 71 341 69 311 q 76 410 72 371 m 521 346 q 519 374 519 360 q 517 403 518 389 q 497 466 513 439 q 456 510 481 493 q 401 537 431 528 q 339 546 371 546 q 276 537 307 546 q 219 510 244 528 q 178 465 194 492 q 158 401 163 438 q 155 372 156 386 q 153 346 154 358 l 521 346 m 338 986 l 514 867 l 468 799 l 338 886 l 207 799 l 161 867 l 338 986 z "},"ł":{"ha":475,"x_min":49,"x_max":426,"o":"m 194 493 l 72 457 l 49 538 l 194 582 l 194 972 l 279 972 l 279 607 l 403 643 l 426 563 l 279 519 l 279 339 q 292 176 279 258 q 323 115 297 140 q 385 83 349 89 l 376 0 l 375 0 q 264 53 310 7 q 208 165 218 99 q 198 251 201 208 q 194 339 194 294 l 194 493 z "},"ò":{"ha":676,"x_min":65,"x_max":611,"o":"m 74 400 q 103 499 79 457 q 164 570 128 542 q 246 613 200 599 q 339 626 292 626 q 431 613 386 626 q 513 570 476 599 q 574 499 550 542 q 603 400 599 457 q 603 215 611 308 q 574 116 599 158 q 514 45 550 74 q 433 2 478 17 q 340 -12 388 -12 q 247 2 293 -12 q 165 45 201 17 q 103 117 128 74 q 74 215 79 160 q 74 400 65 308 m 156 224 q 175 156 158 185 q 217 109 192 128 q 273 81 242 90 q 338 71 304 71 q 401 81 369 71 q 458 109 432 90 q 500 157 483 128 q 521 224 517 186 q 521 392 528 308 q 501 459 518 431 q 460 506 485 488 q 403 535 435 525 q 339 544 372 544 q 276 535 307 544 q 219 506 244 525 q 176 458 193 488 q 156 392 160 429 q 156 224 149 308 m 253 1019 l 472 872 l 425 801 l 206 949 l 253 1019 z "},"ñ":{"ha":706,"x_min":104,"x_max":615,"o":"m 615 0 l 532 0 l 532 281 q 531 339 532 310 q 526 396 529 368 q 476 500 519 458 q 371 544 432 542 q 188 528 278 549 l 188 0 l 104 0 l 104 560 q 113 586 104 575 q 135 600 121 597 q 374 628 254 633 q 460 608 419 626 q 533 560 501 590 q 585 490 564 531 q 610 404 606 450 q 614 342 613 372 q 615 281 615 313 l 615 0 m 453 914 q 411 882 438 882 q 390 890 400 882 q 367 909 379 899 q 337 928 354 919 q 293 936 319 936 q 226 915 257 936 q 178 858 196 894 l 251 822 q 293 853 269 853 q 315 844 306 853 q 338 826 325 836 q 367 807 350 815 q 411 799 385 799 q 478 819 447 799 q 528 876 508 840 l 453 914 z "},"ø":{"ha":682,"x_min":69,"x_max":613,"o":"m 157 385 q 153 314 153 343 q 157 242 153 285 q 193 154 161 192 l 422 524 q 381 536 403 532 q 339 540 360 540 q 272 528 304 540 q 216 496 240 517 q 176 447 192 475 q 157 385 160 418 m 525 385 q 489 472 521 433 l 260 104 q 343 86 300 86 q 410 99 379 86 q 466 132 442 111 q 506 181 490 153 q 525 242 522 210 q 529 314 529 285 q 525 385 529 343 m 149 79 q 97 149 117 110 q 74 235 78 189 q 69 313 69 281 q 74 393 69 346 q 98 478 78 439 q 151 549 118 518 q 225 599 183 579 q 314 624 267 619 q 368 624 342 626 q 418 614 394 621 q 464 596 442 607 l 514 678 l 586 635 l 532 549 q 584 477 564 517 q 608 393 604 438 q 613 313 613 346 q 608 235 613 281 q 588 160 604 196 q 547 94 572 124 q 488 44 522 65 q 415 13 454 24 q 381 6 399 8 q 343 3 363 3 l 343 3 q 267 13 301 3 q 242 20 254 15 q 218 31 229 25 l 168 -50 l 96 -8 l 149 79 z "},"œ":{"ha":1119,"x_min":65,"x_max":1057,"o":"m 156 390 q 156 222 147 307 q 188 138 160 171 q 253 88 215 104 q 337 71 292 71 q 420 88 382 71 q 486 139 458 106 q 518 222 514 172 q 518 390 525 307 q 486 475 514 442 q 420 525 458 508 q 337 541 382 542 q 253 524 292 540 q 188 474 215 507 q 156 390 160 440 m 610 401 q 606 346 608 374 l 972 346 q 968 404 972 375 q 937 485 964 453 q 872 533 910 517 q 790 548 833 549 q 708 531 746 547 q 642 483 669 515 q 610 401 615 450 m 561 104 q 481 26 529 54 q 381 -10 433 -1 q 276 -7 329 -18 q 181 33 224 4 q 108 108 138 63 q 74 214 79 153 q 74 397 65 306 q 108 504 79 458 q 181 578 138 550 q 276 618 224 607 q 381 621 329 629 q 481 585 433 613 q 561 508 529 557 q 636 588 590 558 q 734 626 682 617 q 840 627 786 636 q 938 590 893 618 q 1014 518 983 563 q 1050 413 1044 474 q 1053 377 1053 396 q 1056 343 1054 358 q 1057 317 1057 328 q 1057 306 1057 307 q 1045 276 1057 288 q 1015 264 1033 264 l 606 264 q 608 237 607 250 q 611 210 608 224 q 660 113 618 151 q 761 71 703 74 q 972 94 868 65 l 994 15 q 951 3 972 8 q 906 -4 929 -1 q 790 -12 850 -12 q 660 13 718 -12 q 561 104 601 39 z "},"ù":{"ha":703,"x_min":90,"x_max":599,"o":"m 419 799 l 200 946 l 247 1018 l 468 869 l 419 799 m 90 615 l 174 615 l 174 332 q 175 274 174 303 q 179 218 176 246 q 230 115 186 157 q 333 69 274 72 q 515 88 428 67 l 515 615 l 599 615 l 599 54 q 568 14 599 24 q 361 -14 464 -14 l 331 -14 q 244 6 285 -12 q 173 54 204 24 q 121 124 142 85 q 96 210 100 164 q 92 270 93 240 q 90 332 90 300 l 90 615 z "},"l":{"ha":321,"x_min":90,"x_max":300,"o":"m 300 0 q 219 17 257 0 q 152 62 181 33 q 107 128 124 90 q 90 210 90 167 l 90 972 l 172 972 l 172 210 q 182 160 172 183 q 209 119 192 136 q 250 92 226 101 q 300 82 274 82 l 300 0 z "},"Ç":{"ha":685,"x_min":76,"x_max":636,"o":"m 350 900 q 287 883 317 897 q 234 847 257 869 q 197 795 211 825 q 178 732 182 765 q 166 602 169 661 q 163 486 163 543 q 166 370 163 429 q 178 240 169 311 q 233 124 185 171 q 350 72 282 78 q 604 113 479 64 l 636 33 q 492 -6 565 6 q 344 -12 419 -18 q 251 10 294 -10 q 175 63 208 31 q 120 138 142 94 q 93 231 99 181 q 81 367 85 306 q 76 486 76 428 q 81 606 76 544 q 93 742 85 667 q 120 834 99 792 q 175 909 142 876 q 251 961 208 942 q 344 985 294 981 q 636 939 494 996 l 604 860 q 350 900 479 908 m 285 -347 l 285 -264 l 453 -264 q 472 -256 464 -264 q 481 -236 481 -247 q 472 -217 481 -225 q 453 -208 464 -208 l 285 -208 q 249 -189 264 -208 q 247 -149 236 -168 l 344 50 l 419 13 l 351 -125 l 453 -125 q 532 -158 500 -125 q 564 -236 564 -190 q 532 -315 564 -282 q 453 -347 500 -347 l 285 -347 z "},"ç":{"ha":624,"x_min":69,"x_max":540,"o":"m 308 543 q 207 500 250 540 q 157 400 164 460 q 153 350 154 372 q 151 306 151 328 q 153 263 151 285 q 157 213 154 240 q 207 113 164 154 q 308 69 250 72 q 414 72 361 67 q 518 93 467 78 l 540 14 q 336 -14 440 -14 l 304 -14 q 220 6 260 -12 q 150 53 181 24 q 99 121 119 82 q 75 204 79 160 q 71 259 72 235 q 69 306 69 283 q 71 353 69 329 q 75 408 72 378 q 99 492 79 453 q 150 560 119 531 q 220 607 181 589 q 304 626 260 625 q 540 599 424 631 l 518 519 q 308 543 414 549 m 228 -347 l 228 -264 l 396 -264 q 417 -256 408 -264 q 425 -236 425 -247 q 417 -217 425 -225 q 396 -208 408 -208 l 228 -208 q 192 -189 207 -208 q 190 -149 179 -168 l 288 50 l 363 13 l 294 -125 l 396 -125 q 476 -158 443 -125 q 508 -236 508 -190 q 476 -315 508 -282 q 396 -347 443 -347 l 228 -347 z "}}}
